<svg width="11692.909999999998" height="8267.72" xmlns="http://www.w3.org/2000/svg">
 <defs>
  <path id="svg_1" d="m0,0z"/>
  <style type="text/css">
   <![CDATA[
    @font-face { font-family:"Bauhaus 93";font-variant:normal;font-style:normal;font-weight:normal;src:url("#FontID0") format(svg)}
    .str3 {stroke:#373435;stroke-width:27.78;stroke-miterlimit:2.61313}
    .str2 {stroke:#373435;stroke-width:6.94;stroke-miterlimit:2.61313}
    .str4 {stroke:black;stroke-width:6.94;stroke-miterlimit:2.61313}
    .str0 {stroke:#373435;stroke-width:6.94;stroke-miterlimit:2.61313}
    .str1 {stroke:black;stroke-width:6.94;stroke-miterlimit:2.61313}
    .fil4 {fill:none}
    .fil0 {fill:black}
    .fil1 {fill:black;fill-rule:nonzero}
    .fil3 {fill:black;fill-rule:nonzero}
    .fil2 {fill:white;fill-rule:nonzero}
    .fnt3 {font-weight:normal;font-size:134.67px;font-family:'Bauhaus 93'}
    .fnt2 {font-weight:normal;font-size:224.46px;font-family:'Bauhaus 93'}
    .fnt1 {font-weight:normal;font-size:448.92px;font-family:'Bauhaus 93'}
    .fnt0 {font-weight:normal;font-size:1111.11px;font-family:'Bauhaus 93'}
   ]]>
  </style>
 </defs>
 <g>
  <title>background</title>
  <rect fill="none" id="canvas_background" height="402" width="582" y="-1" x="-1"/>
 </g>
 <g>
  <title>Layer 1</title>
  <g id="Layer_x0020_1">
   <metadata id="CorelCorpID_0Corel-Layer"/>
   <path id="svg_2" d="m5612.03,1639.34c143.41,381.26 587.3,74.28 801.82,-124.18c194.04,-179.52 10.94,-140.65 -98.3,-57.74c-109.23,82.9 -514.94,362.44 -560.67,132.72c-34.39,-172.86 0.09,-377.81 258.88,-364.23c1014.73,53.27 1914.31,1294.8 493.45,887.26c-245.85,-70.52 -550.48,-34.01 -787.35,37.27c30.8,22.86 92.5,91.13 123.39,113.2c544.84,-118.96 1273.01,226.44 1512.15,9.44c393.61,-357.18 -461.87,-1146.75 -1335.4,-1181.85c-411.65,-16.54 -486.41,339.31 -407.98,548.12l0.01,-0.01z" class="fil0"/>
   <path id="svg_3" d="m5398.11,1390.95c-34.39,-43.46 -69.48,-84.87 -106.44,-126.2c-0.08,-0.11 0.37,0.47 0.43,0.52c-17.94,-24.02 -38.07,-38.51 -63.68,-53.54c-29.11,-16.31 -56.63,-27.6 -88.04,-38.62c-58.37,-19.51 -112.89,-32.24 -172.59,-45.47c-24.57,-4.86 -47.25,-6 -72.12,-5.75c-1.93,0.02 -3.85,0.06 -5.78,0.14c-2.03,0.01 -4.05,0.04 -6.07,0.1c-68.7,2.12 -143.18,12.69 -208.79,32.48c-106.32,15.78 -133.32,-43.22 -308.02,38.98c-24.76,12.94 -47.87,25.91 -71.12,41.41c-21.37,16.4 -175.48,181.59 -162.8,218.94c0,0 1.59,-14.25 4.61,-17.8c25.86,-30.32 149.75,-175.38 166.86,-188.08c22.89,-14.86 45.67,-27.42 69.93,-39.92c170.96,-79.4 200.83,-20.12 306.23,-36.43c63.69,-18.87 136.99,-28.98 203.63,-30.93c1.97,-0.06 3.93,-0.12 5.9,-0.19c1.87,0 3.74,-0.02 5.61,-0.04c23.51,-0.2 44.68,0.6 67.95,5.12c59.02,12.83 113.06,25.26 170.76,44.31c30.31,10.5 57.07,21.3 85.2,36.88c23.19,13.46 42.17,26.74 58.51,48.32c0.13,0.12 0.64,0.89 0.75,0.93c36.96,40.87 72.11,81.86 106.8,124.63c7.15,9 160.1,213.05 163.48,212.84c6.85,-13.5 -142.67,-211.53 -151.22,-222.63l0.02,0z" class="fil1"/>
   <path id="svg_4" d="m6645.98,3413.88c-5.76,-3.17 -11.36,-6.42 -16.94,-9.9c-24.21,-15.48 -39.35,-27.96 -54.8,-52.35c-41.84,-71.67 -40.74,-79.9 -117.23,-131.74c1.05,0.71 1.66,1.43 2.22,2.56c0.51,1.16 0.67,2.1 0.54,3.37c8.24,-74.99 3.73,-131.12 -15.56,-203.93c-20.38,-69.41 -45.56,-121.76 -82.37,-183.59c-31.43,-50.96 -63.78,-96.83 -99.89,-144.28c-1.61,-2.11 -3.24,-4.22 -4.89,-6.31c-1.66,-2.21 -3.33,-4.42 -5.02,-6.61c-48.07,-62.31 -97.78,-123.14 -145.7,-185.69c-135.06,-181.14 -235.06,-350.62 -346.55,-545.07c-10.84,-18.82 -192.93,-334 -210.49,-336.74c-0.65,2.48 189.69,331.76 196.85,344.49c110.15,195.86 210.8,366.59 345.68,548.31c47.82,62.71 97.4,123.67 145.43,186.09c1.68,2.18 3.37,4.35 5.07,6.52c1.58,2.12 3.17,4.23 4.78,6.33c35.77,46.9 67.84,92.11 99.05,142.46c36.02,60.22 60.81,111.28 80.87,178.91c18.85,70.33 23.38,124.48 15.67,197c-0.24,2.24 0.04,3.98 0.95,6.04c1.01,2.03 2.17,3.36 4.06,4.61c74.39,50.19 71.6,56.96 112.54,125.91c17.1,26.59 33.8,40.47 60.39,57.27c5.88,3.58 11.79,6.93 17.86,10.17c45.2,23.46 91.43,40.06 139.64,56.1c7.56,2.54 13.84,5.11 20.56,9.44c4.67,3.19 7.89,6.04 11.24,10.59c5.89,8.76 7.5,16.71 9.72,26.82c2.94,13.39 5.16,22.5 12.07,34.63c10.44,16.47 22.39,25.52 39.16,35.06c9.98,5.68 17.87,11.4 24.85,20.59c2.26,3.2 3.9,6.06 5.13,9.78c0.79,2.7 1.17,4.97 0.76,7.77c-0.44,2.25 -1.17,3.71 -2.78,5.33c-2.14,1.96 -4.31,2.78 -7.1,3.4c-4.16,0.63 -31.4,-3.48 -31.85,-3.06c-0.02,5.53 26.61,10.39 33.02,10.16c4.39,-0.65 7.61,-1.78 11.14,-4.54c3.18,-2.77 4.77,-5.46 5.83,-9.54c0.93,-4.3 0.65,-7.72 -0.39,-11.96c-1.32,-4.87 -3.17,-8.54 -5.9,-12.76c-7.44,-10.94 -16.12,-17.78 -27.37,-24.59c-14.55,-8.75 -25.22,-16.99 -33.98,-31.77c-5.89,-10.85 -7.59,-19.22 -9.96,-31.13c-2.47,-12.42 -4.26,-21.02 -11.31,-31.91c-4.31,-6.09 -8.46,-9.98 -14.57,-14.27c-7.77,-5.22 -14.98,-8.35 -23.79,-11.44c-47.15,-16.21 -92.58,-32.98 -136.66,-56.52l0.02,-0.01z" class="fil1"/>
   <path id="svg_5" d="m6549.95,3641.4c-33.27,-85.46 -72.8,-92.11 -132.67,-157.78c-1.35,-1.5 -2.57,-2.35 -4.45,-3.07c-13.52,-4.74 -24.45,-6.85 -38.82,-6.06c-12.86,1.17 -22.15,4.15 -33.1,11.03c-10.72,7.3 -17.27,14.73 -23.9,25.83c-6.93,12.46 -10.25,23.2 -12.65,37.22c-2.56,14.69 -5.98,25.35 -13.96,38c-6.69,9.92 -13.05,16.23 -22.19,23.82c-8.26,6.7 -16.87,12.77 -25.02,19.61c-9.17,7.97 -15.13,14.47 -20.42,25.57c-10.32,21.76 -21.65,36.03 -41.43,49.85c-17.37,11.14 -32.57,16.52 -53.15,18.24c-17.69,0.8 -31.85,-1.48 -47.45,-10.14c-6.73,-4.09 -11.36,-8 -16.24,-14.2c-4.8,-6.48 -7.3,-11.97 -9.24,-19.79c-1.38,-6.21 -2.5,-12.41 -1.87,-18.79c-0.08,-1.45 0.8,-3.31 1.17,-4.68c0.27,-0.99 1.15,-1.74 1.66,-2.49c1.87,-1.77 4.02,-2.42 6.49,-2.96c4.37,-0.81 8.42,-0.77 12.84,-0.58c11.81,0.7 23.35,2.51 35.24,3.14c6.58,0.25 12.17,0.13 18.69,-0.95c6.86,-1.32 11.82,-3.11 17.57,-7.16c18.57,-14.12 30.24,-27.2 42.58,-46.93c11.33,-19.16 17.95,-35.84 24.15,-57.13c11.13,-41.77 14.41,-78.5 18.19,-121.12c9.62,-98.34 13.7,-67.13 40,-144.94c0.47,-1.46 0.64,-2.7 0.58,-4.24c-0.25,-5.29 -0.5,-10.59 -0.74,-15.88c-0.24,-5.22 -0.48,-10.44 -0.75,-15.66c-0.19,-4.98 -0.39,-9.95 -0.63,-14.92c-5.4,-113.83 -23.46,-122.24 -104.89,-208.58c-226.45,-247.61 -130.75,-263.22 -238.35,-414c-116.21,-139.63 -221.3,-219.21 -365.27,-324.24c-41.71,-30.46 -476.45,-409.02 -479.94,-410.18c11.12,66.97 416.77,382.87 470.67,422.83c142.02,104.93 246.05,183.8 360.91,322.46c103.97,146.43 10.54,165.89 238.69,415.74c77.89,82.76 94.49,88.47 99.56,196.84c0.23,4.96 0.47,9.92 0.72,14.87c0.19,5.23 0.41,10.46 0.65,15.69c0.1,2.22 0.61,15.59 0.75,15.92c-0.03,-0.91 0.07,-1.64 0.35,-2.51c-26.21,77.75 -30.94,48.71 -40.68,149.19c-3.6,41.28 -6.69,77.33 -17.39,117.77c-5.69,19.61 -11.71,35.01 -22.11,52.67c-10.93,17.56 -21.28,29.24 -37.76,41.81c-3.2,2.27 -6.23,3.2 -10.05,3.94c-5.04,0.85 -9.63,0.9 -14.72,0.71c-11.8,-0.6 -23.33,-2.41 -35.14,-3.07c-6.06,-0.26 -11.28,-0.19 -17.27,0.94c-6.37,1.39 -10.86,3.36 -15.64,7.91c-2.43,2.54 -3.89,4.72 -5.34,7.92c-1.43,3.36 -2.1,6.21 -2.55,9.83c-0.85,8.8 0.33,16.3 2.26,24.88c2.6,10.44 6.06,17.93 12.49,26.57c6.43,8.13 12.52,13.33 21.38,18.68c19.03,10.52 36.01,13.45 57.59,12.44c23.95,-2.06 41.55,-8.29 61.75,-21.3c22.65,-15.92 35.71,-32.29 47.51,-57.29c3.99,-8.43 8.87,-13.48 15.82,-19.54c8,-6.77 16.57,-12.82 24.72,-19.46c10.61,-8.87 17.84,-16.21 25.6,-27.78c9.33,-14.89 13.44,-27.39 16.41,-44.67c1.99,-11.8 4.71,-20.96 10.52,-31.47c5.13,-8.65 10.14,-14.49 18.47,-20.2c8.32,-5.26 15.33,-7.5 25.12,-8.42c11.76,-0.7 20.83,1.15 31.91,5c-0.99,-0.37 -1.71,-0.89 -2.42,-1.67c57.79,63.07 98.89,72.3 130.47,152.31c0.91,2.47 1.78,4.94 2.64,7.42c3.92,10.9 8.05,19.67 17.1,27.18c6.23,4.67 9.82,5.59 16.8,8.08c1.49,0.55 2.79,1.06 4.07,2c1.19,0.95 1.72,1.83 2.37,3.2c3.11,7.52 2.63,19.35 2.3,27.31c-0.51,12.86 -0.11,23.71 3.18,36.21c2.76,9.42 6.05,16.3 12.89,23.43c6.17,5.89 11.77,8.9 20.04,10.93c7.96,1.66 14.23,1.54 22.22,0.3c15.4,-2.95 27.4,-8.43 40.2,-17.36c5.32,-3.88 9.68,-7.61 13.94,-12.66c1.75,-1.63 3.23,-4.79 4.52,-6.76c1.25,-2.54 1.98,-4.68 2.22,-7.52c0.67,-14.39 -1.45,-23.82 -8.8,-36.17c-6.35,-9.88 -13.93,-17.86 -21.33,-26.87c-9.46,-11.77 -15.09,-20.78 -20.69,-34.91c-7.7,-21.09 -9.64,-39.16 -10.01,-61.48c-0.12,-7.78 -0.61,-14.53 -3.13,-21.93c-2.07,-5.53 -4.36,-9.2 -8.96,-12.94c-8.22,-5.85 -16.05,-6.67 -25.49,-9.19c-11.79,-3.33 -18.54,-7.07 -26.91,-16.16c-5.7,-7.09 -25.52,-55.48 -27.78,-56.5c-5.81,6.76 15.54,52.85 21.7,61.65c9.22,10.76 17.02,15.55 30.4,19.89c7.13,2.12 15.91,3.62 21.86,8.12c2.88,2.49 4.17,4.92 5.43,8.49c1.87,6.15 2.11,12.18 2.09,18.56c0,23.87 1.78,42.97 9.55,65.69c5.89,15.53 11.94,25.61 22.07,38.64c6.78,8.48 14.3,16.59 20.02,25.79c5.7,9.85 7.15,16.97 6.52,28.36c0.11,0.46 -0.71,1.91 -0.84,2.34c-0.33,1.09 -2.25,3.22 -2.92,4.2c-3.47,4.01 -7.16,7.04 -11.46,10.12c-10.95,7.45 -21.39,12.2 -34.48,14.58c-5.96,0.88 -10.76,1 -16.67,-0.28c-5.39,-1.39 -8.95,-3.28 -12.95,-7.17c-4.85,-5.17 -7.05,-10.3 -8.99,-17.06c-2.72,-10.82 -2.91,-20.43 -2.41,-31.53c0.54,-11.43 0.97,-23.46 -3.36,-34.27c-1.76,-3.85 -3.61,-6.43 -6.91,-9.1c-2.68,-2.03 -5.04,-3.17 -8.17,-4.33c-4.83,-1.77 -8.3,-2.59 -12.5,-5.79c-6.22,-5.26 -9.25,-12.6 -11.91,-20.11c-0.31,-0.47 -2.31,-6.64 -2.72,-7.76l-0.02,-0.02z" class="fil2"/>
   <path id="svg_6" d="m4686.35,1789.67c2.19,-2.27 4.37,-4.38 6.73,-6.47c10.36,-8.92 19.72,-14.68 32.57,-19.51c12.21,-4.13 22.3,-5.6 35.07,-3.29c9.89,2.11 18.46,4.58 27.28,9.59c1.64,0.62 5.83,3.88 7.42,5.28c0.24,0.21 0.5,0.42 0.76,0.61c0.21,0.24 0.44,0.48 0.67,0.71c1.72,1.68 3.02,3.28 4.3,5.33c2.31,4 3.06,7.25 2.61,11.86c-0.79,5.39 -2.99,9.28 -6.3,13.54c-5.03,6.08 -10.29,9.96 -17.07,13.94c-9.32,5.21 -17.7,8.25 -28.02,10.94c-7.33,1.85 -14.21,3.09 -21.69,4.08c-8.2,0.85 -64.46,0.54 -65.81,4.26c-0.16,11.14 61.5,11.55 67.31,11.35c8.33,-0.59 15.89,-1.67 24.07,-3.41c12.05,-2.82 21.7,-6.12 32.67,-11.93c9.01,-5.06 15.67,-9.97 22.44,-17.83c5.7,-7.14 9.04,-13.41 10.52,-22.48c1.02,-9.06 -0.32,-15.82 -4.77,-23.75c-0.28,-1.46 -5.63,-7.67 -7.18,-9.19c-0.36,-0.36 -0.74,-0.7 -1.13,-1.02c-0.34,-0.36 -0.7,-0.7 -1.07,-1.03c-3.28,-2.89 -6.77,-5.19 -10.56,-7.38c-10.81,-5.94 -20.94,-8.84 -33.02,-11.24c-16.35,-2.67 -29.04,-0.81 -44.53,4.8c-14.91,6 -25.79,12.96 -37.49,23.89c-1.32,0.84 -6.15,6.33 -7.46,7.86c-6.99,8.4 -11.9,15.93 -15.72,26.18c-2.21,6.26 -3.4,11.54 -3.4,18.19c0.19,5.68 1.08,11.91 4.88,16.41c0.5,0.77 1.08,1.33 1.95,1.67c1.16,0.33 2.2,0.23 2.48,-1.09c0.11,-0.75 -0.11,-1.52 0.2,-2.13c0.04,-0.19 0.41,-0.32 0.52,-0.39c0.31,-5.15 -0.02,-8.07 0.93,-13.62c1.08,-5.14 2.52,-9.09 4.79,-13.84c2.05,-5.68 10.84,-16.51 15.03,-20.88l0.02,-0.01z" class="fil1"/>
   <path id="svg_7" d="m4485.57,1760.68c-6.05,-4.91 -11.39,-7.91 -18.71,-10.64c-14.64,-4.85 -26.59,-4.79 -41.59,-1.68c-13.61,3.31 -24.05,7.89 -35.77,15.5c-8.93,6.18 -17.05,12.87 -22.63,22.33c-1.08,2.03 -1.53,3.79 -1.5,6.09c0.12,2.3 0.64,4.01 1.85,5.96c0.02,0.09 0.81,1.3 0.97,1.55c0.2,0.31 0.41,0.63 0.64,0.93c0.18,0.35 0.37,0.69 0.57,1.02c8.39,13.42 14.44,24.42 25.16,36.68c6.3,6.65 11.72,10.94 20.18,14.63c9.59,3.72 17.19,4.22 27.33,2.7c12.96,-2.12 26.17,-3.44 39,-5.9c5.05,-1.02 9.65,-2.16 14.51,-3.88c8.11,-2.98 13.97,-6.12 19.76,-12.62c2.7,-3.68 12.33,-21.94 5.44,-24.1c-2.89,-0.28 -9.28,11.33 -14.05,15.62c-4.9,3.9 -9.42,5.6 -15.43,7.23c-1.57,0.76 -10.69,1.99 -12.81,2.27c-13.05,1.66 -26.02,2.67 -39.1,4.49c-6.68,0.83 -11.57,0.54 -17.82,-2.06c-5.75,-2.66 -9.48,-5.91 -13.72,-10.55c-9.43,-11.2 -15.1,-22.13 -22.61,-34.33c-0.22,-0.35 -0.45,-0.69 -0.7,-1.03c-0.18,-0.35 -0.38,-0.7 -0.59,-1.04c-0.32,-0.5 -0.72,-1.21 -1.06,-1.66c0.7,1.15 0.99,2.13 1.06,3.48c0.01,1.33 -0.23,2.37 -0.86,3.55c3.72,-6.57 10.56,-12.01 16.58,-16.3c9.65,-6.49 18.3,-10.52 29.58,-13.5c11.53,-2.66 20.83,-3.09 32.26,0.26c5.55,1.83 9.6,3.92 14.33,7.32c0.15,0.11 0.57,0.46 0.7,0.52c5.93,4.6 9.85,8.94 14.18,15.04c0.42,0.44 1.03,1.55 1.59,1.88c5.91,4.89 18.65,15.75 25.78,18.58c0.19,-0.19 0.27,-0.3 0.55,-0.36c0.43,-0.16 1.57,0.47 2.11,0.58c1.33,0.23 1.84,-0.67 1.98,-1.89c0.22,-0.72 -0.8,-2.43 -0.79,-2.44c0.51,-2.27 -18.58,-22.73 -20.33,-24.46c0.28,0.25 0.55,0.56 0.76,0.87c-4.61,-8.03 -9.03,-13.72 -15.96,-19.92c-0.13,-0.16 -0.69,-0.58 -0.88,-0.74l0.04,0.02z" class="fil1"/>
   <path id="svg_8" d="m4526.68,2306.88c33.79,21.51 122.09,11.69 151.81,-18.19c29.71,-29.88 62.21,-120.42 69.53,-144.89c6.94,-23.7 -5.27,-43.29 -15.19,-21.87c0,0 -36.78,40.8 -65.67,54.9c-28.88,14.11 -88.95,27.5 -118.01,21.52c-29.06,-5.98 -98.06,-70.51 -99.92,-60.01c-4.34,30.28 107.78,106.8 139.89,103.54c32.12,-3.26 141.46,-65.48 156.21,-96.31c2.75,-5.75 -7.49,-32.89 -13.05,-16.76c-6.87,19.94 -34.67,100.98 -61.07,128.61c-26.4,27.62 -104.39,42.31 -140.54,21.06c-36.15,-21.24 -61.24,-124.85 -81.41,-137.31l-0.04,-2.83c0.82,-8.36 -10.15,0.72 -3.49,13.84c13.17,30.69 47.15,133.19 80.94,154.7l0.01,0z" class="fil1"/>
   <path id="svg_9" d="m4728.47,1778.62c0.07,-0.05 0.5,-0.28 0.53,-0.31c2.79,-1.57 5.1,-2.29 8.29,-2.67c3.3,-0.3 5.84,-0.04 9.04,0.83c3.08,0.95 5.32,2.05 7.85,4.05c2.27,1.93 3.69,3.67 4.93,6.38c0.85,1.13 1.32,5.21 1.35,6.8c0,0.14 0.02,0.28 0.05,0.41c-0.04,0.14 -0.05,0.28 -0.06,0.43c0,0.2 -0.06,1.05 -0.04,1.12c-0.37,4.89 -1.87,8.68 -4.07,13.04c-0.94,1.78 -1.88,2.98 -3.37,4.32c-1.57,1.33 -2.92,2.12 -4.81,2.9c-4.29,1.58 -8.01,1.82 -12.49,1.06c-0.74,0.08 -4.59,-1.27 -5.49,-1.66c-2.35,-1.04 -4.15,-2.12 -6.09,-3.8c-1.84,-1.63 -3.12,-3.16 -4.44,-5.21c-2.15,-2.21 -3.17,-7.98 -7.17,-8.02c-5.25,0.19 -4.37,8.77 -3.87,12.07c0.95,4.09 2.38,7.06 4.84,10.47c1.06,2.34 7.14,7.02 9.41,8.37c3.01,1.75 5.7,2.83 9.06,3.76c7.9,1.94 14.35,1.78 22.14,-0.65c3.96,-1.4 6.89,-2.96 10.2,-5.54c3.46,-2.82 5.73,-5.5 7.97,-9.35c3.68,-6.79 5.97,-12.56 6.76,-20.25c0.08,-0.25 0.12,-1.7 0.13,-2.11c0.01,-0.28 0,-0.56 -0.04,-0.83c0.04,-0.26 0.05,-0.53 0.05,-0.8c-0.07,-5.17 -1.22,-9.52 -3.33,-14.24c-2.74,-5.5 -5.77,-9.09 -10.61,-12.87c-4.73,-3.43 -8.83,-5.31 -14.48,-6.74c-5.63,-1.26 -10.13,-1.44 -15.83,-0.55c-5.8,1.11 -10.1,2.82 -14.85,6.32c-0.11,0.05 -0.78,0.61 -0.92,0.73c-4.46,3.87 -7.07,7.49 -9.27,12.95c-1.84,2.65 -3.78,19.21 2.66,19.27c4.09,-0.2 6.87,-9.21 9.58,-13.34c0.67,-1.79 4.76,-5.3 6.44,-6.33l-0.05,-0.01z" class="fil1"/>
   <path id="svg_10" d="m4490.63,1795.87c-0.18,-4.53 -1.15,-8.02 -3.06,-12.13c-2.43,-4.86 -5.07,-8.17 -8.97,-11.93c-5.52,-5.01 -10.34,-7.24 -17.65,-8.68c-11.92,-1.96 -22.43,-2.8 -33.85,1.85c-0.73,0.09 -4.7,2.47 -5.66,3.14c-0.24,0.17 -0.47,0.35 -0.68,0.55c-0.26,0.15 -0.52,0.32 -0.76,0.51c-2.52,1.96 -4.48,4.12 -6.42,6.66c-4.08,5.7 -6.06,10.94 -7.76,17.71c-1.28,5.61 -1.79,10.17 -1.3,15.93c0.56,5.08 1.63,8.84 4.08,13.34c2.36,4.04 4.75,6.74 8.46,9.59c3.56,2.58 6.65,4.1 10.83,5.43c1.11,0.54 4.95,1.2 6.34,1.39c6.07,0.71 10.94,0.48 16.87,-0.95c3.51,0 20.81,-8.27 16.01,-14c-2.85,-3.06 -13.17,0.2 -18.19,0.61c-1.85,0.57 -9.84,-0.58 -11.88,-1.09c-1.37,-0.35 -2.6,-0.74 -3.92,-1.26c-2.22,-0.91 -3.87,-1.82 -5.74,-3.35c-1.61,-1.41 -2.65,-2.69 -3.63,-4.59c-1.07,-2.25 -1.45,-4.11 -1.64,-6.58c-0.14,-3.62 0.35,-6.58 1.25,-10.07c1.15,-4.08 2.43,-7.6 5.02,-10.99c0.36,-0.72 2.3,-2.45 3.07,-3.06c0.11,-0.08 0.21,-0.18 0.3,-0.29c0.12,-0.05 0.24,-0.11 0.35,-0.19c0.92,-0.62 1.56,-1.01 2.58,-1.51c7.27,-3.23 15.76,-2.33 23.42,-1.31c3.77,0.61 6.06,1.46 9.02,3.87c2.39,2.1 4.19,4.02 5.81,6.77c0.85,1.02 1.83,4.29 2.04,5.69c0.04,0.24 0.11,1.23 0.15,1.35c0.17,3.46 -0.54,6.06 -1.89,9.22c-1.9,4.37 -8.57,13.4 -6.11,16.77c4.62,4.8 15.32,-7.12 17.66,-9.99c3.42,-5.07 5.16,-9.41 5.79,-15.54c0.09,-0.28 0.07,-2.46 0.06,-2.89l0,0.02z" class="fil1"/>
   <path id="svg_11" d="m4397.35,2237.01c0.87,5.94 1.76,11.88 2.69,17.81c4.34,26.02 10.58,45.48 23.26,68.71c11.94,20.44 23.65,34.33 41.85,49.5c36.41,28.04 70.44,39.2 116.04,42.55c45.89,1.49 81.5,-6.24 122.45,-27.12c40.9,-23.12 66.29,-48.7 86.35,-91.43c17.49,-44.54 19.84,-101.73 22.47,-149.34c2.34,-45.78 3.4,-93.57 9.23,-138.97c3.09,-23.95 4.77,-49.91 10.25,-73.32c0.24,-1.27 0.68,-2.75 1.02,-4.03c0.63,-2.35 1.31,-4.7 2.02,-7.02c0.8,-2.36 1.66,-4.71 2.57,-7.03c6.45,-16.17 13.96,-26.13 26.62,-38.33c44.25,-41.17 75.24,-80.19 95.41,-137.95c6.84,-22.49 9.76,-40.67 8.69,-64.22c-1.59,-21.14 -5.72,-36.8 -15.65,-55.58c-10.42,-18.15 -21.17,-29.73 -38.23,-41.83c-18.99,-12.56 -35.51,-18.71 -57.74,-23.32c-58.85,-9.73 -107.72,1.79 -162.8,22.54c-43.86,16.21 -77.48,19.22 -123.69,15.25c-40.89,-4.54 -75.08,-13.42 -114.49,-23.79c-11.78,-3.1 -23.5,-6.13 -35.37,-8.89c-21.16,-4.74 -39.9,-8.26 -61.7,-7.71c-15.22,0.8 -26.5,3.17 -40,10.44c-14.23,8.47 -22.31,17.69 -30.63,31.89c-24.25,44.88 -37.18,82.73 -40.51,133.67c0.02,18.61 13.79,131.94 35.28,132.93c7.25,-12.82 -24.32,-111.87 -23.75,-132.2c4.46,-48.74 17.41,-84.63 41.25,-127.37c7.01,-11.63 13.66,-19.28 25.5,-26.11c11.28,-5.9 20.76,-7.62 33.39,-8.17c20.17,-0.26 38.07,3.37 57.61,7.93c11.68,2.8 23.23,5.88 34.82,9.01c40.34,10.94 75,20.06 116.95,24.92c49.07,4.46 84.97,1.24 131.61,-15.83c51.55,-19.24 98.12,-30.46 153.15,-21.15c19.64,4.12 34.27,9.53 51.02,20.68c14.54,10.37 23.73,20.27 32.58,35.8c8.54,16.23 12,29.76 13.33,48c0.9,21.11 -1.83,37.47 -8.01,57.61c-19.09,54.21 -48.91,91.13 -90.52,129.74c-14.76,14.17 -23.98,26.34 -31.48,45.22c-1.06,2.68 -2.02,5.4 -2.87,8.15c-0.89,2.61 -1.69,5.26 -2.4,7.93c-0.18,0.69 -1.04,4.33 -1.14,4.5c-5.65,24.28 -7.32,50.4 -10.47,75.19c-5.8,46.02 -6.81,94.11 -9.08,140.51c-2.36,44.12 -4.65,102.01 -20.65,143.15c-18.11,38.87 -41.2,62.04 -78.28,83.14c-37.82,19.43 -70.81,26.69 -113.27,25.45c-41.72,-2.91 -73.05,-12.88 -106.47,-38.39c-16.54,-13.65 -27.22,-26.19 -38.12,-44.64c-11.8,-21.3 -17.61,-39.22 -21.78,-63.13c-0.96,-5.87 -1.91,-11.76 -2.82,-17.64c-7.86,-52.35 -9.54,-90.37 -6.47,-143.36c-0.24,-31.33 -11.22,-87.52 -18.11,-119.11c-2.14,-9.42 -4.38,-18.65 -7.32,-27.85c-0.9,-3.3 -2.35,-6.34 -3.58,-9.48c-1.22,-2.59 -2.38,-4.75 -4.63,-6.6c-43.79,-28.89 -40.06,-7.89 -81.23,-57.03l0.01,0.02c-1.33,-1.69 -6.28,-8.24 -8.36,-8.93c-0.06,-0.04 -0.35,0.01 -0.43,0.05c-0.23,0.13 -0.17,0.29 -0.23,0.38c-0.67,1 4.42,10.29 4.94,11.16c0.02,0.03 0.21,0.27 0.2,0.31c36.87,51.27 36.49,32.99 78.43,62.63c-0.39,-0.31 0.83,1.64 1.23,2.54c1.13,2.7 2.01,5.49 2.84,8.29c2.77,8.23 4.48,18.5 6.37,27.04c5.72,28.98 16.4,87.57 15.78,115.6c-3.7,54.04 -2.42,93.16 5.05,146.68l0.02,-0.05z" class="fil1"/>
   <path id="svg_12" d="m4372,1332.48c-0.96,0.23 -4.79,1.35 -5.44,1.38c-84.04,23.74 -121.09,55.79 -187.02,110.39c-5.19,4.12 -9.5,6.27 -16.19,6.56c-6.77,-0.02 -12,-2.01 -18,-4.98c-16.04,-8.62 -30.15,-21.5 -44.09,-33.14c-16.09,-13.27 -30.54,-24.9 -50.76,-31.28c-10.52,-2.77 -18.57,-3.05 -29.14,-0.2c-12.07,3.82 -19.84,9.72 -28.59,18.7c-11.65,12.8 -17.98,24.83 -24.16,40.87c-6.56,18.2 -9.94,34.39 -12.52,53.52c-5.15,44.28 -3.54,83.12 1.65,127.26c5.78,43.74 13.96,82.27 27.81,124.19c10.59,30.26 23.01,61.07 44.89,85.07c20.2,20.32 38.97,36.27 66.11,46.34c17.98,5.82 30.85,6.72 49.38,3.89c8.25,-1.45 21.36,-5.15 29.17,-5.02c2.58,0.17 4.18,0.58 6.24,2.17c3.23,2.74 5.17,6.66 6.85,10.47c12.78,30.58 14.61,40.27 33.48,69.99c31.04,46.7 74.1,97.52 93.52,149.35c1.24,3.34 2.44,6.69 3.61,10.06c1.25,3.81 2.45,7.64 3.62,11.47c11.14,36.68 18.69,74.97 26.01,112.53c7.87,38.17 22.75,71.91 43.03,105.11c13.39,20.6 25.88,35.82 44.71,51.79c20.09,16.02 37.21,24.84 62.52,30.11c43.2,7.82 81.19,13.06 125.31,11.24c40.54,-2.81 70.02,-10.11 104.23,-32.81c50.52,-36.9 73.95,-64.84 104.15,-118.59c56.96,-107.9 38.45,-150.11 100.61,-258.06c15.86,-28.13 20.07,-54.33 31.43,-83.75c6.12,-14.79 11.89,-25.21 22.53,-37.29c13.42,-14.3 26.06,-22.07 43.96,-29.88c39.02,-16.65 76.16,-32.04 105.06,-64.06c8.41,-9.97 14.2,-18.98 20.34,-30.44c12.98,-25.21 22.6,-51.97 32.51,-78.5c22.83,-78.45 15.54,-194.13 2.52,-275.36c-3.19,-17.79 -6.88,-33.59 -14.76,-49.94c-5.74,-11.15 -11.6,-19.53 -22.5,-26.08c-9.7,-5.17 -17.62,-6.09 -28.39,-4.5c-11.27,2.14 -19.75,6.07 -29.62,11.73c-6.67,4.6 -113.34,90.56 -112.99,98.23c4.77,2.06 105.75,-81.15 118.13,-89.23c8.67,-4.74 16.38,-8.24 26.2,-9.87c8,-1.03 13.8,-0.4 20.93,3.56c8.5,5.38 13.05,12.56 17.47,21.41c6.98,15.27 10.23,30.28 13,46.77c11.26,77.76 18.13,193.46 -4.24,267.93c-9.76,25.75 -19.33,52.05 -32.11,76.47c-5.63,10.33 -10.87,18.43 -18.53,27.41c-26.74,29.28 -63.46,44.13 -99.36,59.35c-20.33,8.81 -34.6,17.67 -49.88,33.83c-12.11,13.67 -18.78,25.43 -25.77,42.18c-10.73,27.59 -15.85,55.53 -30.45,81.26c-63.6,110.01 -45.07,151.79 -101.46,258.26c-28.91,51.15 -50.81,77.39 -99.04,112.51c-31.13,20.59 -58.12,26.93 -94.96,29.44c-42.5,1.66 -79.38,-3.56 -120.98,-11.15c-21.98,-4.61 -36.78,-12.38 -54.2,-26.33c-17.19,-14.61 -28.61,-28.7 -40.83,-47.54c-18.86,-30.97 -33.06,-63.09 -40.33,-98.69c-7.43,-38.24 -15.09,-77.15 -26.41,-114.5c-1.22,-4 -2.51,-7.99 -3.88,-11.94c-1.17,-3.57 -2.4,-7.11 -3.7,-10.63c-20.27,-54.15 -63.15,-104.22 -95.54,-152.84c-18.19,-28.58 -19.7,-37.57 -32.12,-67.22c-3.13,-7.06 -6.24,-12.46 -12.22,-17.5c-5.4,-4.14 -10.1,-5.74 -16.85,-6.16c-11.22,-0.15 -22.02,3.36 -32.98,5.29c-15.29,2.38 -25.61,1.73 -40.46,-3.06c-24.06,-8.89 -41.22,-23.78 -59.12,-41.75c-19.75,-21.56 -31.35,-51.07 -40.92,-78.28c-13.52,-40.69 -21.53,-78.17 -27.22,-120.63c-5.08,-42.56 -6.76,-80.15 -1.91,-122.86c2.37,-17.72 5.43,-32.83 11.47,-49.71c5.24,-13.66 10.59,-24.19 20.46,-35.11c6.37,-6.56 12.12,-11.26 20.93,-14.08c7.18,-1.96 12.57,-1.66 19.73,0.2c17.08,5.34 30.93,16.68 44.58,27.88c15.3,12.7 29.65,25.65 47.3,35.05c8.8,4.33 16.02,6.71 25.93,6.72c10.81,-0.52 18.02,-3.75 26.42,-10.44c63.67,-53.04 99.3,-84.61 180.48,-107.96c0.56,-0.29 4.29,-1.13 5.19,-1.35c105.84,-23.26 208.29,-16.16 314.18,1.99c33.77,7.23 281.21,113.3 293.09,111.34c0.61,-44.95 -266.21,-118.67 -290.69,-124.21c-108.23,-19.7 -211.83,-27.42 -320.37,-4.35l-0.04,0z" class="fil2"/>
   <path id="svg_13" d="m5050.56,1808.24c0.35,0.32 1.35,1.09 1.58,1.35c4.56,3.5 8.45,5.11 14.15,5.96c11.89,1.27 20.54,-0.47 31.04,-6.24c10.13,-6.15 16.41,-13.11 23.07,-22.81c14.58,-22.82 21.39,-46.22 27.09,-72.44c5.6,-28.58 8.74,-55.31 9.65,-84.33c0.02,-0.71 0.02,-1.43 0.01,-2.14c0.05,-0.73 0.08,-1.46 0.09,-2.2c0.36,-19.05 -0.22,-38.2 -3.4,-57.01c-5.25,-30.67 -7.91,-113.68 -13.79,-131.01c-1.42,-3.33 -2.95,-5.64 -5.94,-7.78c-1.7,-1.13 -3.22,-1.72 -5.24,-2.07c-1.92,-0.28 -3.44,-0.21 -5.33,0.18c-3.5,0.83 -6.07,2.24 -9.01,4.25c-0.38,0.17 -1.98,1.45 -2.41,1.79c-2.36,1.86 -4.61,3.9 -6.78,5.98c-5.79,6.18 -60.85,69.88 -56.46,76.73c4.65,1.8 59.58,-58.61 66.96,-65.47c1.47,-1.51 4.04,-3.5 5.78,-4.76c0.55,-0.4 1.22,-0.79 1.73,-1.19c1.01,-0.78 2.21,-1.29 3.41,-1.67c0.02,-0.01 -0.52,0.07 -0.52,0c-0.48,-0.08 -0.83,-0.21 -1.24,-0.47c-0.78,-0.55 -0.34,-0.24 -0.04,0.54c4.63,17.11 5.71,95.77 11.04,128.22c2.69,17.63 2.96,35.55 2.57,53.36c-0.02,0.71 -0.02,1.42 0,2.12c-0.06,0.69 -0.09,1.37 -0.11,2.06c-0.76,28.03 -3.52,53.57 -8.69,81.24c-4.94,23.69 -10.93,45.83 -23.72,66.63c-4.95,7.41 -9.67,13.09 -17.25,17.91c-7.01,4.04 -12.64,5.28 -20.68,4.61c-2.56,-0.3 -4.26,-0.95 -6.36,-2.43c-0.07,-0.02 -0.7,-0.54 -0.8,-0.63c-2.09,-1.82 -3.41,-3.61 -4.85,-5.96c-4.56,-7.98 -6.67,-16.4 -8.52,-25.33c-1,-5.78 -6.45,-61.03 -13.3,-60.95c-6.63,1.02 -0.85,59.66 -0.35,63.3c1.67,11.08 3.72,20.43 8.85,30.52c0.87,2.55 5.67,8.25 7.73,10.15l0.04,-0.01z" class="fil1"/>
   <path id="svg_14" d="m4100.59,1814.03c-2.7,-0.59 -4.98,-1.35 -7.5,-2.46c-9.25,-4.38 -15.12,-10.13 -20.6,-18.74c-26.93,-46.35 -36.92,-82.13 -41.11,-135.18c-0.87,-13.61 -1.22,-26.76 -1.24,-40.37c0,-0.69 -0.02,-1.38 -0.05,-2.06c0.03,-0.71 0.05,-1.43 0.05,-2.15c-0.01,-32.74 1.31,-65.33 1.16,-98.16c-0.06,-16.1 0.43,-31.11 3.6,-46.94c1.83,-7.98 4.13,-16.09 9.46,-22.49c1.61,-1.76 2.94,-2.88 5.1,-3.91c1.99,-0.85 3.56,-1.13 5.71,-1.15c6.23,0.19 11.46,2.62 16.81,5.62c1.07,0.23 8.8,5.78 10.17,6.83c12.22,10.67 71.76,81.72 72.97,81.39c12.96,-10.46 -57.73,-88.51 -63.24,-93.69c-3.82,-3.11 -7.5,-5.78 -11.69,-8.39c-8.18,-4.82 -15.15,-7.81 -24.76,-8.33c-4.76,-0.04 -8.22,0.57 -12.64,2.37c-4.56,2.04 -7.56,4.3 -10.97,7.93c-7.83,8.99 -11.08,18.65 -13.83,30.08c-3.74,17.2 -4.51,33.25 -4.57,50.8c-0.17,32.75 -1.86,65.39 -1.95,98.02c0,0.73 0.01,1.46 0.04,2.19c-0.04,0.7 -0.05,1.41 -0.04,2.11c0.04,14.11 0.96,27.62 1.57,41.66c4.9,55.94 16.09,94.09 45.23,142.58c7.63,11.56 15.78,19.08 28.5,24.67c1.06,0.9 9.1,2.89 10.89,3.2c2.24,0.37 4.25,0.59 6.52,0.67c6.49,0.12 11.41,-0.69 17.46,-3.04c6.29,-2.68 10.53,-5.7 15.24,-10.64c5.08,-5.72 8.02,-10.9 10.8,-18c2.38,-8.09 9.07,-55.6 -0.66,-56.93c-1.7,0.58 -6.95,40.67 -11.47,51.94c-2.41,5.19 -4.83,9.06 -8.9,13.13c-3.28,3.12 -6.13,4.98 -10.38,6.57c-3.97,1.33 -7.17,1.73 -11.34,1.48c-0.62,0.09 -3.61,-0.45 -4.36,-0.61l0.02,0z" class="fil1"/>
   <path id="svg_15" d="m5526.79,3535.04c0.86,1.35 1.71,2.48 2.79,3.68c4.63,4.91 9.3,7.39 15.63,9.57c7.2,2.26 13.36,2.96 20.88,3.09c19.27,-0.11 34.92,-4.27 52.81,-11.24c32.09,-13.37 62.26,-27.67 86.14,-53.63c8.07,-9.55 13.01,-17.68 16.94,-29.57c3.22,-10.86 3.98,-19.39 3.37,-30.66c-4.87,-45.06 -25.61,-79.59 -30.98,-127.19c-2.13,-28.61 -5.1,-56.83 -4.27,-85.58c0.04,-1.2 0.07,-2.41 0.08,-3.61c0.08,-1.23 0.16,-2.46 0.23,-3.69c3.18,-57.31 26.47,-93.37 57.09,-141.08c28.1,-43.87 47.74,-86.94 57,-138.54c3.73,-26.59 3.76,-48.11 -5.17,-73.72c-4.88,-12.51 -10.12,-21.26 -19.02,-31.31c-10.1,-10.72 -19.34,-17.28 -32.45,-23.87c-0.14,-0.1 -0.74,-0.36 -0.93,-0.46c-19.26,-8.9 -34.68,-13.17 -55.85,-14.33c-19.87,-0.51 -34.83,1.89 -53.64,7.99c-7.46,2.98 -95.22,47.09 -89.83,61.34c6.93,3.93 84.48,-45.55 93.78,-48.85c17.27,-4.94 30.88,-6.8 48.91,-5.91c18.89,1.51 32.63,5.61 49.72,13.85c0.16,0.08 0.72,0.39 0.84,0.42c11.09,5.79 18.91,11.43 27.42,20.67c7.31,8.45 11.57,15.75 15.53,26.2c7.63,22.6 7.21,41.94 3.78,65.31c-9.09,48.74 -28.25,89.93 -55.07,131.28c-32.72,50.56 -57.17,89.02 -60.71,149.98c-0.07,1.31 -0.12,2.63 -0.14,3.94c-0.09,1.28 -0.15,2.56 -0.19,3.84c-0.73,29.07 2.06,58.83 4.61,87.74c5.67,48.62 26.64,83.78 31.57,126.74c0.52,8.89 0.04,15.67 -2.47,24.26c-3.06,9.44 -6.97,15.82 -13.31,23.42c-21.31,23.59 -50.46,37.33 -79.28,49.55c-15.58,6.21 -29.58,10.17 -46.42,10.51c-5.7,-0.04 -10.57,-0.46 -16.06,-2.09c-3.44,-1.14 -6.33,-2.41 -8.91,-5.02c-0.19,-0.12 -0.98,-1.19 -1.14,-1.44c-1.03,-1.65 -1.39,-2.97 -1.5,-4.91c-0.04,-4.19 1.46,-7.67 3.42,-11.31c9.3,-15.79 24.9,-27.41 39.74,-37.66c9.28,-6.65 15.52,-14.17 21.98,-23.47c7.23,-10.93 12.33,-20.91 17.13,-33.08c4.53,-12.09 7.56,-22.78 8.86,-35.63c0.15,-2.36 0.77,-30.81 -5.99,-29.65c-0.78,0.46 -1.98,24.87 -2.57,28.43c-2.47,11.74 -5.88,21.53 -10.69,32.54c-5.02,11.01 -10.17,20.15 -17.25,30c-5.61,7.53 -11.22,14.09 -19.1,19.33c-17.42,11.49 -34.06,23.76 -45.34,41.66c-3.58,6.39 -5.6,11.75 -5.72,19.15c0.17,5.05 1.17,8.65 3.76,12.99l-0.01,0.02z" class="fil1"/>
   <path id="svg_16" d="m6961.33,2831.99c52.56,5.93 90.57,15.89 137.68,40.46c44.5,24.95 74.64,51.92 112.52,85.22c112.81,98.33 181.12,127.41 333.27,141.95c115.87,9.02 215.59,25.43 325.98,63.13c54.76,20.06 98.97,40.55 147.07,73.7c44.2,32.4 75.52,62.59 102.69,110.24c0.6,1.05 1.17,1.8 2.02,2.66c4.78,4.67 9.55,9.35 14.33,14.02c2.93,2.87 5.87,5.72 8.83,8.56c3.02,3 6.06,5.99 9.1,8.96c1.98,1.94 3.98,3.88 5.96,5.82c0,0 -0.31,-0.32 -0.31,-0.32c0,0 14.17,15.06 15.19,16.14c-0.39,-0.4 -0.73,-0.91 -1.01,-1.39c-0.12,-0.24 0.28,1.22 0.39,2.19c0.24,2.39 0.2,4.82 0.11,7.22c-0.33,7.8 -1.2,15.68 -1.92,23.45c-2.14,23.59 -3.1,42.65 -0.38,66.47c4.13,28.43 11.57,48.3 30.33,70.5c11.25,12.21 21.61,19.71 36.31,27.42c18.21,8.98 34.11,13.46 54.06,17.1c86.38,14.18 96.06,4.89 178.25,44.54c40.5,21.9 86.04,70.08 121.29,101.7c21.48,18.84 41.46,35.24 66.87,48.69c11.53,5.74 21.12,9.42 33.87,11.59c12.5,1.72 21.83,1.15 33.84,-2.88c10.36,-3.83 18.87,-7.77 27.17,-15.2c3.31,-3.15 5.56,-5.91 7.76,-9.93c1.97,-3.84 2.96,-6.97 3.49,-11.25c0.7,-8.43 -0.98,-14.52 -4.54,-22.07c-3.9,-7.66 -8.24,-13.4 -13.89,-19.83c-23.96,-25.6 -46.54,-38.87 -72.59,-60.07c-65.38,-52.57 -72.41,-24.47 -115.66,-62.96c0.88,0.88 1.35,1.71 1.66,2.92c0.25,1.2 0.21,2.18 -0.2,3.34c-0.45,1.16 -1.04,1.94 -2.03,2.7c-1.02,0.71 -1.92,1.05 -3.16,1.14c29.97,0.08 81.04,13.3 106.52,28.95c31.1,21.28 60.97,40.33 94.19,58.19c50.03,25.95 91.86,42.7 147.99,50.63c18.28,1.75 37.31,-0.9 53.63,-9.57c4.1,-2.43 7.13,-4.77 10.14,-8.5c3.04,-4.05 4.48,-7.56 4.86,-12.63c0.16,-5.54 -1.17,-9.6 -3.78,-14.43c-3.37,-5.79 -7.2,-9.91 -12.09,-14.43c-27.98,-20.61 -146.69,-93.72 -177.14,-102.84c-16.38,-3.87 -163.06,-59.67 -167.4,-56.41c8.67,15.17 160.11,65.9 165.32,67.21c29.96,11.11 143.26,81.85 169.91,102.2c3.6,3.37 6.77,6.72 9.21,11.04c1.19,2.23 2.04,4.33 1.94,6.89c-0.16,1.91 -0.79,3.17 -1.95,4.67c-1.78,2.14 -3.74,3.51 -6.12,4.9c-13.36,6.93 -29.83,8.94 -44.68,7.38c-54.02,-8.06 -94.39,-24.65 -142.45,-49.93c-32.56,-17.74 -61.88,-36.64 -92.37,-57.68c-29.25,-18.15 -82.09,-31.98 -116.62,-32.21c-2.27,0.17 -3.95,0.76 -5.81,2.08c-1.81,1.39 -2.87,2.82 -3.7,4.94c-0.75,2.19 -0.85,3.91 -0.39,6.17c0.57,2.2 1.46,3.76 3.08,5.35c48.58,43.44 52.41,12.51 116.1,63.86c24.91,20.46 47.95,34.12 70.71,58.54c4.47,5.12 8.19,9.91 11.26,16c1.96,4.18 3.25,7.89 2.85,12.56c-0.25,1.94 -0.69,3.3 -1.59,5.04c-1.18,2.15 -2.51,3.69 -4.28,5.37c-6.19,5.52 -13.49,8.67 -21.2,11.5c-9.02,3 -15.93,3.32 -25.3,2.01c-10.66,-1.83 -18.95,-5.13 -28.58,-9.95c-23.8,-12.66 -42.98,-28.59 -63.1,-46.31c-37.56,-33.81 -81.44,-80.86 -125.05,-104.57c-84.76,-41 -94.86,-31.85 -183.11,-46.42c-18,-3.31 -32.41,-7.31 -48.85,-15.44c-12.54,-6.6 -21.33,-12.91 -30.93,-23.35c-16.06,-19.06 -22.2,-36.24 -25.69,-60.61c-2.52,-22.23 -1.5,-40.32 0.53,-62.36c0.76,-8.14 1.64,-16.28 2.01,-24.45c0.22,-3.45 -0.08,-6.48 -0.19,-9.86c-0.39,-3.47 -0.96,-6.15 -2.6,-9.27c-0.21,-0.68 -1.29,-1.76 -1.71,-2.35c-5.03,-5.35 -10.05,-10.7 -15.08,-16.05c0,0 -0.19,-0.19 -0.27,-0.28c-1.83,-1.97 -4.08,-4 -6.04,-5.91c-3.05,-2.98 -6.1,-5.94 -9.17,-8.89c-2.91,-2.89 -5.83,-5.77 -8.76,-8.63c-4.77,-4.66 -9.55,-9.32 -14.31,-13.98c0.51,0.5 0.85,0.96 1.2,1.57c-28.77,-50.28 -61.59,-82.08 -108.34,-116.25c-49.67,-34.12 -95.09,-55.18 -151.59,-75.78c-112.17,-38.12 -213.17,-54.66 -330.86,-63.58c-148.27,-13.96 -213.29,-41.67 -323.43,-137c-39.13,-34.19 -69.86,-61.4 -115.83,-86.97c-49.31,-25.44 -88.98,-35.73 -143.89,-41.67c-11.31,-1.07 -22.39,-1.77 -33.74,-2.19c-22.95,-0.69 -595.65,-34.45 -604.53,-31.39c40.55,25.87 558.88,45.3 603.95,46.9c10.96,0.87 21.72,1.17 32.77,2.29l0,-0.03z" class="fil1"/>
   <path id="svg_17" d="m6430.01,2279.85c52.28,-0.79 97.52,6.76 148.65,17.58c59.84,13.22 114.85,26.33 173.05,46.43c55.89,20.47 105.37,42.65 147.3,86.19c0.92,1 1.76,1.65 2.94,2.32c180.69,96.92 355.71,175.27 542.61,256.95c3.04,1.33 6.08,2.64 9.13,3.93c3.14,1.41 6.29,2.8 9.44,4.18c309.07,134.87 545.56,246.85 826.58,442.77c2.18,1.5 4.15,2.09 6.8,2.02c18.39,-0.57 32.22,2.28 49.39,8.68c18.54,7.46 32.19,15.87 47.86,28.17c21.99,18.14 37.14,35.3 52.73,59.07c7.67,12.13 13.66,23.37 19.33,36.55c18.05,35.89 66.78,81.19 96.72,108.56c21.22,19.01 42.3,36.77 65.31,53.59c13.65,9.79 32.56,23.35 49.08,27.29c36.09,6.5 71.34,6.86 107.22,12.99c17.08,3.29 30.97,6.99 46.28,15.39c3.76,2.36 35.83,45.39 36.12,45.39c6.25,-7.63 -28.29,-49.07 -32.2,-51.86c-15.78,-9.83 -30.26,-14.32 -48.31,-18.39c-35.62,-7.26 -70.86,-8.32 -106.61,-15.44c-13.57,-3.69 -32.59,-17.61 -43.85,-25.88c-22.31,-16.84 -42.93,-34.62 -63.54,-53.49c-26.61,-24.75 -76.46,-72.07 -92.02,-104.09c-5.93,-14.07 -12.2,-26.07 -20.28,-39.03c-16.44,-25.45 -32.49,-43.79 -55.84,-63.24c-17.04,-13.5 -31.84,-22.64 -52.03,-30.87c-19.49,-7.35 -35.21,-10.56 -56.13,-9.99c1.41,-0.04 2.55,0.31 3.71,1.1c-281.32,-197.44 -518.84,-310.72 -828.84,-446.39c-3.16,-1.38 -6.32,-2.74 -9.49,-4.09c-3.02,-1.36 -6.06,-2.7 -9.09,-4.02c-186.53,-81.32 -361.15,-158.97 -541.67,-255.26c0.63,0.35 1.17,0.76 1.65,1.3c-44.49,-45.97 -95.37,-68.99 -154.58,-90.5c-59.05,-20.2 -114.54,-33.28 -175.24,-46.42c-52.61,-10.95 -98.85,-18.45 -152.59,-17.17c-336.99,37.61 -427.25,-58.17 -522.06,-54.55c101.61,83.48 397.93,82.67 522.49,70.23l-0.02,0z" class="fil1"/>
   <path id="svg_18" d="m5022.29,2941.24c66.45,-17.51 89.55,-11.04 152.31,6.28c0.42,0.11 0.84,0.22 1.27,0.29c0.43,0.15 0.86,0.29 1.3,0.4c72.1,19.28 130.61,11.5 201.07,-12.53c13.65,-5 172.47,-70.23 172.59,-85.05c-1.1,-0.74 -163.74,65.52 -177.47,70.14c-70.01,21.97 -120.66,28.33 -191.37,9.42c-0.43,-0.11 -0.86,-0.21 -1.29,-0.3c-0.4,-0.14 -0.81,-0.27 -1.22,-0.38c-61.62,-16.7 -97.94,-23.62 -161.71,-3.3c-10.99,3.88 -129.47,52.36 -127.55,66.9c1.17,0.91 119.1,-47.81 132.07,-51.87z" class="fil3"/>
   <path id="svg_19" d="m5700.09,2770.35c16.16,-7.51 30.72,-13.5 47.91,-18.46c21.49,-5.7 38.33,-8.13 60.39,-6.37c0.33,0.02 0.67,0.04 1,0.03c0.34,0.06 0.68,0.11 1.02,0.14c3.8,0.32 7.5,0.77 11.27,1.31c33.16,5.3 64.47,17.56 96.79,26.61c4.35,1.19 66.63,17.09 68.11,8.22c0.01,-5.59 -57.61,-21.26 -63.56,-23.23c-31.91,-10.74 -65.35,-24.35 -98.52,-29.87c-4.09,-0.68 -8.31,-1.24 -12.44,-1.61c-0.38,-0.04 -0.76,-0.05 -1.15,-0.05c-0.37,-0.07 -0.73,-0.11 -1.1,-0.14c-24.11,-1.73 -43.52,1.44 -66.81,8.05c-17.89,5.7 -33.5,12.51 -50.01,21.39c-4.01,2.19 -58.27,33.58 -53.5,40.76c3.96,4.25 54.76,-23.97 60.58,-26.76l0.02,-0.02z" class="fil1"/>
   <path id="svg_20" d="m4124.07,3174.29c-4.18,8.49 -8.35,17.02 -12.65,25.45c-37.19,75.13 -63.43,156.33 -75.41,239.31c-2.75,23.65 -4.22,45.54 -2.54,69.27c0.08,1.07 0.18,2.15 0.31,3.22c0.06,1.11 0.15,2.22 0.26,3.33c1.9,18.33 5.23,32.94 11.91,50.31c8.17,19.21 17.02,32.08 33.08,45.63c18.15,14.04 34.45,19.99 56.95,23.9c67.64,9.38 115.5,9.57 180.01,-12.81c0.01,0 0.11,-0.04 0.13,-0.05c7.98,-3.16 146.22,-62.29 146.66,-68.52c-6.46,-7.22 -140.74,49.67 -151.76,53.69c-0.04,0.02 -0.09,0.03 -0.13,0.04c-62.71,20.04 -106.74,19.61 -172.12,10.15c-19.09,-3.43 -33,-8.43 -48.34,-20.46c-13.41,-11.46 -20.65,-22.34 -27.43,-38.5c-5.86,-15.52 -8.8,-28.89 -10.41,-45.25c-0.1,-1.02 -0.22,-2.05 -0.34,-3.07c-0.05,-1 -0.11,-2 -0.19,-2.99c-1.65,-22.57 -0.35,-43.11 2.15,-65.64c11.31,-81.25 36.94,-160.2 71.73,-234.39c4.15,-8.59 8.25,-17.2 12.27,-25.86c2.81,-6.04 68.08,-146.14 62.26,-149.08c-7.59,-3.84 -73.42,136.25 -76.41,142.31l0.01,0.01z" class="fil1"/>
   <path id="svg_21" d="m4849.38,2515.72c-1.14,7 -2.61,12.89 -5.05,19.57c-3.29,8.51 -6.73,14.76 -12.68,21.72c-5.91,6.49 -11.19,10.34 -19.22,13.91c-82.44,36.11 -172.26,89.45 -248.61,137.82c-1.23,0.78 -2.46,1.58 -3.67,2.4c-1.3,0.79 -2.59,1.6 -3.88,2.42c-40.28,25.81 -79.36,52.63 -118.17,80.62c-73.04,53.67 -140.41,107.93 -202.01,174.72c-3.43,3.78 -6.8,7.57 -10.15,11.41c-21.84,25.52 -39.92,49.16 -56.37,78.46c-2.52,4.88 -37.77,81.41 -24.16,86.54c6.24,-1.07 31.85,-73.92 35.34,-80.04c17.16,-27.59 35.34,-50.27 56.94,-74.56c3.34,-3.7 6.7,-7.36 10.11,-11.01c62.11,-65.18 128.27,-117.98 200.94,-170.81c38.76,-27.71 77.49,-53.96 117.59,-79.62c1.28,-0.82 2.54,-1.65 3.8,-2.49c1.24,-0.75 2.48,-1.52 3.7,-2.3c76.6,-48.77 162.93,-100.3 245.22,-138.19c10.47,-4.78 17.35,-9.9 24.99,-18.48c7.25,-8.71 11.47,-16.42 15.38,-27.01c2.7,-7.8 4.3,-14.65 5.47,-22.8c1.98,-15.86 1.59,-28.79 -0.69,-44.56c-4.59,-26.41 -11.82,-46.48 -25.75,-69.31c-3.04,-4.41 -45.63,-57.58 -55.25,-48.47c-1.39,5.09 41.26,48.92 44.78,54.69c11.87,21.77 18.03,40.54 21.61,65.16c1.7,14.26 1.84,25.94 -0.23,40.2l0.02,0.01z" class="fil1"/>
   <path id="svg_22" d="m3485.64,2769.41c-4.35,2.35 -8.65,4.47 -13.15,6.52c-165.63,78.92 -156.5,140.14 -346.59,221.29c-68.67,27.24 -143.93,52.56 -197.01,106.09c-23.37,26.59 -33.46,49.51 -39.78,84.25c-6.41,44.65 -1.45,83.15 6.92,127.15c-0.17,-0.97 -0.15,-1.67 0.06,-2.64c0.01,-0.82 0.88,-1.82 1.18,-2.44c-6.16,7.77 -11.76,15.13 -16.46,23.89c-3.83,7.62 -5.78,13.57 -5.78,22.18c0.36,8.57 2.57,14.65 6.28,22.29c4.55,8.93 9.96,17.05 15.56,25.33c7.4,11.1 12.98,20.94 17.35,33.59c2.94,9.19 4.28,16.5 4.01,26.15c-1.16,17.04 -6.56,28 -14.65,42.67c-8.81,15.67 -16.26,27.45 -20.76,45.24c-2.17,10.14 -2.38,17.84 -0.8,28.11c2.28,12.33 6.13,21.35 12.26,32.24c14.09,23.43 27.57,38.31 51.11,52.33c18.27,10.02 32.79,14.3 52.83,18.97c11.67,2.65 26.52,5.28 36.98,11.02c3.65,2.22 5.97,4.23 8.05,8.01c2.43,4.91 2.74,9.62 2.64,15.02c-0.38,7.88 -1.61,13.77 -5.26,20.79c-3.48,6.15 -7.11,10.01 -12.79,14.18c-13.74,9.22 -27.59,12.04 -43.86,13.37c-18.78,1 -34.44,-0.69 -52.68,-5.15c-14.22,-3.81 -27.7,-8.61 -39.52,-17.61c-44.97,-37.7 -60.73,-61.66 -82.93,-114.44c-7.65,-18.21 -13.83,-32.96 -25.35,-49.29c-14.67,-19.38 -28.69,-29.66 -50.35,-40.5c-1.5,-0.7 -2.74,-1.01 -4.38,-1.13c-1.59,-0.06 -2.8,0.1 -4.33,0.59c-1.48,0.51 -2.6,1.15 -3.81,2.15c-1.26,1.1 -2.03,2.07 -2.82,3.55c-47.3,94.34 -20.67,68.43 -116.07,115.55c-9,4.77 -14.42,10.17 -20.27,18.4c-5.6,8.3 -9.2,16.06 -12.94,25.3c-7.27,18.69 -12.75,37.55 -20.81,55.97c-4.01,8.75 -7.89,15.95 -13.76,23.63c-5.76,7.19 -10.87,11.88 -18.91,16.44c-9.36,4.91 -17.14,6.66 -27.64,7.41c-14.84,0.62 -27.07,-1.51 -41.39,-5.19c-6.59,-1.82 -12.76,-3.82 -18.56,-7.52c-2.7,-1.86 -4.99,-3.73 -6.31,-6.8c-0.94,-2.57 -0.78,-4.64 -0.21,-7.28c1.07,-4.21 2.89,-7.63 5.13,-11.32c5.5,-8.5 11.44,-15.39 18.2,-22.8c5.16,-5.64 10.45,-11.16 15.62,-16.78c4.54,-4.85 10.66,-11.23 14.34,-16.65c0.02,-0.03 0.05,-0.07 0.07,-0.1c16.78,-22.06 59.1,-52.16 81.14,-70.18c16.93,-14.27 31,-27.35 45,-44.66c13.75,-17.83 22.1,-32.84 26.98,-55.03c-0.2,0.96 -0.5,1.66 -1.04,2.48c-0.33,0.78 -1.44,1.43 -1.97,1.94c2.56,-1.64 20.81,-36.03 -31.22,-0.82c0,0 -24.81,16.87 -27.18,18.49c-3.3,2.25 -6.56,4.56 -9.84,6.85c-2.69,1.91 -4.35,2.93 -6.45,5.57c-26.59,38.71 -45.66,54.36 -88.09,72.78c-14.11,6.03 -25.98,10.78 -38.59,19.9c-14.84,11.63 -21.77,22.94 -28.1,40.6c-5.65,16.13 -11.71,27.92 -22.46,41.24c-9.25,10.83 -17.61,17.87 -29.99,24.89c-11.04,5.87 -20.28,9.09 -32.62,11.16c-10.64,1.52 -19.29,1.57 -29.87,-0.42c-8.02,-1.74 -14.59,-4.07 -21.15,-9.12c-2.38,-1.96 -4.06,-3.71 -5.7,-6.34c-1.37,-2.32 -2.07,-4.24 -2.45,-6.91c-0.33,-3.05 -0.03,-5.37 0.79,-8.31c1.25,-4.06 2.93,-7.1 5.3,-10.61c8.11,-11.24 18.28,-18.96 29.74,-26.57c103.58,-73.25 28.77,-87.09 146.42,-149.15c112.27,-57.28 84.74,-76.8 166.52,-131.83c13.9,-8.66 36.61,-19.66 48.38,-28.8c13.9,-12.18 21.48,-32.57 28.83,-49.13c0.08,-0.11 0.36,-0.91 0.42,-1.09c17.94,-54.83 34.69,-110.51 52,-165.59c0.18,-0.56 0.32,-1.17 0.4,-1.75c29.89,-169.47 104.98,-298.16 211.13,-431.01c84.59,-100.2 164.58,-174.98 274.78,-245.95c36.68,-22.8 70.85,-41.26 110.45,-58.54c81.24,-38.98 160.94,-120.2 223.5,-184.48c89.58,-94.2 171.56,-190.12 252.86,-291.35c7.29,-8.32 193.32,-247.31 186.85,-251.96c-3.32,0.24 -187.87,235.77 -195.38,245.06c-82.16,99.97 -164.5,195.18 -254.33,288.57c-60.64,61.76 -140.98,143.04 -219.48,180.17c-40.46,17.45 -75.32,36.11 -112.81,59.24c-112,71.63 -193.23,147.25 -279.21,248.73c-108.6,135.43 -184.71,266.11 -215.46,439.05c-0.07,0.15 0.21,-0.85 0.22,-0.96c0,0 -35.63,112.91 -52.19,165.46c0,0 0.17,-0.44 0.25,-0.67c-5.45,12.27 -13.72,33.69 -24,42.67c-10.29,7.95 -34.03,19.62 -46.64,27.47c-83.3,55.94 -56.29,75.34 -164.89,130.67c-124.84,65.74 -50.59,80.93 -148.46,150.07c-13.78,9.14 -25.01,17.91 -34.78,31.4c-3.57,5.28 -5.91,9.71 -7.8,15.81c-1.55,5.56 -2.01,9.9 -1.39,15.65c0.78,5.45 2.15,9.3 4.92,14.05c2.86,4.56 5.67,7.64 9.83,11.06c9.15,7.05 17.7,10.33 28.9,12.79c12.87,2.43 23.32,2.44 36.28,0.59c14.56,-2.43 25.56,-6.22 38.6,-13.16c14.52,-8.21 24.41,-16.52 35.25,-29.19c12.28,-15.18 19.3,-28.65 25.76,-47.05c4.99,-13.89 10.11,-22.67 21.79,-31.81c10.96,-7.91 22.46,-12.41 34.79,-17.67c45.98,-19.93 67.5,-37.69 96.29,-79.54c-2.88,3.66 -0.47,0.91 1.73,-0.66c3.18,-2.25 6.38,-4.46 9.59,-6.67c8.93,-6.24 18.07,-12.26 27.08,-18.39c48.74,-32.93 18.72,-35.08 10.88,-30.07c-1.43,0.94 -2.39,1.88 -3.38,3.29c-0.93,1.41 -1.43,2.64 -1.78,4.29c-4.2,19.01 -11.61,31.85 -23.38,47.12c-13.16,16.22 -26.48,28.51 -42.37,41.89c-24.2,19.76 -65.58,48.87 -84.14,73.26c-0.02,0.03 -0.06,0.09 -0.09,0.12c-4.06,5.35 -8.46,10.23 -12.99,15.18c-5.26,5.61 -10.6,11.14 -15.79,16.82c-7.77,8.5 -13.76,15.99 -20.3,25.59c-3.43,5.64 -5.77,10.41 -7.41,16.85c-1.48,6.77 -1.35,11.93 1.07,18.48c3.01,7 7.12,11.13 13.35,15.39c7.78,4.96 15.18,7.54 24.04,9.96c16.47,4.21 30.15,6.47 47.22,5.75c13.49,-0.96 23.46,-3.36 35.48,-9.67c10.43,-5.93 17.13,-11.98 24.61,-21.31c6.85,-8.98 11.36,-17.21 16.03,-27.44c8.22,-18.81 13.71,-37.71 21.09,-56.72c3.14,-7.79 6.23,-14.63 10.94,-21.63c3.87,-5.44 7.43,-9.28 13.39,-12.44c99.78,-49.33 74.71,-25.11 124.06,-123.66c-0.45,0.85 -0.91,1.41 -1.62,2.04c-0.5,0.63 -1.55,0.87 -2.2,1.24c-0.66,0.37 -1.83,0.25 -2.5,0.33c-0.79,0.11 -1.86,-0.48 -2.54,-0.65c18.74,9.36 30.86,18.03 43.56,34.78c10.48,14.83 16.33,28.99 23.3,45.58c23.54,55.76 40.91,81.72 88.42,121.5c14.22,10.82 29.21,16.39 46.34,20.96c20.24,4.94 37.51,6.75 58.35,5.61c20.06,-1.65 36.14,-5.34 53.06,-16.71c8.07,-5.95 13.16,-11.48 18.11,-20.24c5.04,-9.73 6.87,-17.82 7.38,-28.73c0.16,-8.93 -0.69,-15.79 -4.69,-23.87c-3.87,-7 -8.05,-11 -14.84,-15.12c-13.17,-7.2 -27.52,-9.69 -42.03,-12.97c-18.12,-4.2 -31.5,-8 -48.01,-17.03c-20.61,-12.24 -32.27,-25.28 -44.61,-45.76c-5,-8.87 -8.3,-16.32 -10.17,-26.37c-1.21,-7.8 -1.05,-13.57 0.59,-21.27c3.86,-15.32 11.31,-26.99 18.93,-40.59c9.61,-17.48 15.44,-30.19 16.79,-50.49c0.32,-11.97 -1.27,-21 -4.92,-32.39c-4.98,-14.31 -11.11,-25.28 -19.51,-37.84c-5.12,-7.57 -10.26,-15.17 -14.42,-23.31c-2.43,-4.98 -4.23,-9.32 -4.48,-14.92c-0.02,-5.31 1.45,-9.11 3.81,-13.81c4.05,-7.58 9.28,-14.36 14.6,-21.09c1.09,-1.41 1.67,-2.61 2.12,-4.33c0.38,-1.74 0.4,-3.05 0.07,-4.8c-7.95,-41.56 -12.96,-78.8 -6.96,-121c5.63,-31.21 14.47,-51.62 35.43,-75.52c49.96,-50.58 125.7,-76.24 190.61,-102.08c193.53,-82.87 182.59,-143.7 346.95,-222.44c4.68,-1.99 9.69,-4.62 14.16,-7.07c24.21,-13.82 39.29,-26.63 54.42,-50.08c13.31,-22.33 19.46,-42.67 28.62,-66.52c10.93,-27.44 20.31,-44.46 40.95,-66.05c31.77,-30.78 65.55,-46.83 106.44,-62.59c173.15,-71.31 242.54,-129.23 342.13,-280.72c28.53,-43.39 53.11,-82.85 92.99,-116.93c21.15,-16.91 38.72,-26.85 64.1,-36.09c7.88,-2.53 90.28,-17.08 90.99,-17.8c-8.27,-7.7 -83.89,8.26 -93.31,10.93c-26.59,8.92 -45.1,18.87 -67.4,36c-41.58,34.17 -66.87,73.57 -96.58,117.76c-100.31,147.96 -166.5,203.6 -337.89,273.46c-43.24,16.48 -78.3,33.19 -112,65.49c-22.28,23.14 -32.67,41.52 -44.55,70.98c-8.76,22.55 -14.98,42.89 -27.59,63.89c-13.64,20.96 -27.13,32.17 -48.85,44.5l0.03,0.01z" class="fil1"/>
   <path id="svg_23" d="m3485.64,2769.41c51.15,-29.03 56.57,-58.22 76.44,-108.38c30.77,-77.71 80.73,-106.58 156.56,-136.48c171.39,-69.86 237.59,-125.49 337.89,-273.46c43.29,-64.12 85.37,-129.44 163.98,-153.76c7.85,-2.23 61.82,-13.72 84.28,-12.98c-21.76,-43.36 -57.15,-86.59 -83.13,-125.69c-18.86,-29.69 -20.71,-39.43 -33.48,-69.99c-1.69,-3.81 -3.61,-7.73 -6.85,-10.47c-2.07,-1.59 -3.67,-2 -6.24,-2.17c-7.85,-0.12 -20.89,3.57 -29.17,5.02c-18.55,2.84 -31.39,1.93 -49.38,-3.89c-27.16,-10.09 -45.88,-25.99 -66.11,-46.34c-21.88,-23.99 -34.3,-54.81 -44.89,-85.07c-0.72,-2.18 -1.42,-4.34 -2.11,-6.5c-30.98,48.52 -174.78,233.15 -181.17,240.44c-81.31,101.23 -163.28,197.14 -252.86,291.35c-62.56,64.28 -142.26,145.5 -223.5,184.48c-39.6,17.28 -73.77,35.74 -110.45,58.54c-110.2,70.96 -190.19,145.75 -274.78,245.95c-106.15,132.85 -181.24,261.54 -211.13,431.01l-52.4,167.35c-4.17,12.75 -17.95,40.9 -29.25,50.23c-11.77,9.14 -34.48,20.15 -48.38,28.8c-81.77,55.03 -54.25,74.55 -166.52,131.83c-117.65,62.06 -42.84,75.9 -146.42,149.15c-74.19,50.87 -16.84,74.51 23.35,68.28c42.83,-6.65 70.96,-37.47 85.07,-77.29c13.18,-37.18 33.31,-46.13 66.69,-60.5c42.43,-18.42 61.49,-34.07 88.09,-72.78l43.47,-30.91c7.07,-4.79 12.85,-8.29 17.54,-10.76c0.9,-1.62 2.05,-2.94 3.69,-4c5.63,-3.6 22.67,-3.51 13.84,9c-0.4,1 -0.85,1.98 -1.31,2.85l0.47,-0.69c-17.99,81.78 -117.23,122.35 -153.12,169.87l-30.04,33.53c-26.86,29.42 -36.74,45.47 1.75,55.72c129.75,34.55 94.42,-110.57 155.71,-141.96c95.4,-47.11 68.77,-21.21 116.07,-115.55c2.92,-5.61 9.7,-7.87 15.34,-5.15c93.38,45.09 52.66,119.52 158.63,204.22c34.99,27.97 151.83,41.79 154.1,-25.58c1.35,-39.92 -47.86,-22.92 -100.5,-53.02c-28.59,-16.35 -57.64,-50.83 -63.37,-84.56c-11.61,-68.45 74.57,-86.79 14.85,-175.76c-26.93,-40.11 -30.97,-53.44 -1.37,-91.43c-13.24,-70.8 -19.48,-151.94 33.39,-208.57c53.07,-53.54 128.34,-78.86 197.01,-106.09c190.1,-81.15 180.97,-142.37 346.59,-221.29c4.5,-2.05 8.8,-4.17 13.15,-6.52l-0.02,-0.03z" class="fil0 str0"/>
   <path id="svg_24" d="m6430.01,2279.85c-120.65,12.05 -402.49,13.19 -512.38,-62.64c57.8,93.01 118.53,184.02 188.74,278.19c47.92,62.56 97.63,123.38 145.7,185.69c1.69,2.19 3.36,4.4 5.02,6.61c1.65,2.09 3.28,4.2 4.89,6.31c22.54,29.63 43.62,58.63 63.92,88.64c31.28,-1.52 580.78,30.86 603.25,31.53c11.36,0.42 22.43,1.13 33.74,2.19c54.92,5.93 94.58,16.22 143.89,41.67c45.97,25.57 76.7,52.78 115.83,86.97c110.13,95.33 175.16,123.03 323.43,137c117.7,8.92 218.7,25.46 330.86,63.58c56.5,20.6 101.93,41.66 151.59,75.78c46.47,33.97 79.18,65.59 107.83,115.35c4.54,4.43 9.08,8.87 13.63,13.3c2.93,2.87 5.86,5.74 8.76,8.63c3.07,2.95 6.13,5.91 9.17,8.89c1.95,1.91 4.21,3.94 6.04,5.91c0.08,0.09 0.27,0.28 0.27,0.28c5.03,5.35 10.05,10.7 15.08,16.05c0.43,0.59 1.5,1.67 1.71,2.35c1.64,3.12 2.22,5.8 2.6,9.27c0.11,3.38 0.41,6.41 0.19,9.86c-0.37,8.17 -1.25,16.31 -2.01,24.45c-2.03,22.04 -3.05,40.13 -0.53,62.36c3.5,24.37 9.63,41.55 25.69,60.61c9.59,10.44 18.39,16.75 30.93,23.35c16.44,8.13 30.85,12.13 48.85,15.44c88.24,14.57 98.35,5.43 183.11,46.42c43.61,23.71 87.49,70.76 125.05,104.57c20.13,17.71 39.3,33.65 63.1,46.31c9.63,4.82 17.92,8.12 28.58,9.95c9.37,1.31 16.29,0.99 25.3,-2.01c7.7,-2.83 15.01,-5.98 21.2,-11.5c1.78,-1.68 3.1,-3.22 4.28,-5.37c0.9,-1.74 1.33,-3.09 1.59,-5.04c0.4,-4.67 -0.89,-8.38 -2.85,-12.56c-3.07,-6.09 -6.8,-10.88 -11.26,-16c-22.76,-24.43 -45.8,-38.09 -70.71,-58.54c-56.28,-45.37 -65.82,-26.51 -100.78,-51.46c-4.61,-3.29 -9.67,-7.34 -15.32,-12.4c-1.62,-1.59 -2.51,-3.15 -3.08,-5.35c-0.47,-2.26 -0.36,-3.98 0.39,-6.17c0.83,-2.12 1.89,-3.56 3.7,-4.94c1.86,-1.33 3.54,-1.91 5.81,-2.08c34.53,0.23 87.37,14.06 116.62,32.21c30.49,21.04 59.81,39.94 92.37,57.68c48.07,25.28 88.43,41.87 142.45,49.93c14.85,1.56 31.32,-0.44 44.68,-7.38c2.39,-1.39 4.35,-2.76 6.12,-4.9c1.16,-1.51 1.79,-2.76 1.95,-4.67c0.11,-2.56 -0.75,-4.66 -1.94,-6.89c-2.44,-4.32 -5.61,-7.67 -9.21,-11.04c-3.95,-3.02 -9.81,-7.15 -17.02,-12.02c-3.62,-1.8 -7.19,-3.89 -10.69,-6.33c-1.01,-0.55 -4.19,-2.56 -5.68,-4.52c-44.51,-29 -114.01,-70.98 -136.51,-79.33c-5.22,-1.31 -156.66,-52.04 -165.32,-67.21c4.33,-3.27 151.02,52.53 167.4,56.41c27.1,8.11 124.1,66.91 164.84,94.28c11.47,2.53 22.46,3.05 36.97,1.37c6.32,-0.96 11.6,-2.27 17.59,-4.52c0.85,-0.33 4.41,-1.72 4.94,-2.13c5.7,-2.8 10.21,-5.67 14.46,-10.44c1.47,-1.74 2.53,-3.3 3.44,-5.4c0.69,-1.67 1.04,-3.08 1.08,-4.89c0,-1.83 -0.31,-3.17 -0.98,-4.87c-0.98,-2.24 -2.17,-3.89 -3.8,-5.71c-5.81,-6.08 -12.77,-9.68 -20.4,-13.03c-13.6,-5.55 -26.51,-8.57 -40.93,-11.17c-22.89,-4.03 -53.47,-10.09 -73.63,-22.93c-0.37,-0.24 -0.73,-0.49 -1.07,-0.76c-0.39,-0.22 -0.76,-0.44 -1.13,-0.69c-22.41,-15.3 -17.73,-15.52 -49.26,-22.02c-42.91,-8.06 -75.41,-15.44 -114.24,-35.55c-5.09,-2.69 -80.94,-45.72 -77.75,-51.65c4.79,-5.04 77.67,34.17 84.75,37.61c36.72,17.2 70.4,24.98 110.35,31.92c33.64,6.64 31.76,7.58 56.6,24.25c0.29,0.2 0.58,0.41 0.85,0.63c0.31,0.16 0.61,0.34 0.91,0.53c18.13,11.65 46.3,16.81 66.81,20.81c6.47,1.23 12.61,2.54 18.63,4.08c3.22,-5.91 7.97,-12.18 7.62,-12.02c-0.13,0.06 -0.51,0.78 -0.51,0.76c1.74,-5.29 2.72,-9.71 2.68,-15.32c-0.13,-4.33 -0.82,-7.43 -2.68,-11.35c-1.28,-2.51 -2.58,-4.37 -4.43,-6.5c-0.7,-0.79 -2.32,-2.6 -3.11,-3.16c-4.09,-3.66 -8.06,-6.23 -12.84,-8.91c-27.81,-14.21 -62.72,-21.07 -93.26,-27.28c-5.74,-1.38 -11.99,-2.35 -17.84,-3.52c-0.42,-0.09 -0.84,-0.19 -1.25,-0.3c-0.44,-0.06 -0.88,-0.13 -1.32,-0.21c-33.84,-6.89 -66.7,-13.82 -99.96,-23.45c-14.44,-4.36 -28.05,-8.99 -41.87,-15.04c-4.11,-1.96 -55.9,-28.51 -51.23,-39.61c-11.23,-5.87 -22.34,-13.85 -31.22,-20.22c-23.01,-16.81 -44.09,-34.58 -65.31,-53.59c-29.94,-27.38 -78.68,-72.67 -96.72,-108.56c-5.67,-13.18 -11.66,-24.42 -19.33,-36.55c-15.59,-23.78 -30.74,-40.93 -52.73,-59.07c-15.67,-12.3 -29.32,-20.71 -47.86,-28.17c-17.17,-6.4 -31,-9.24 -49.39,-8.68c-2.65,0.07 -4.62,-0.52 -6.8,-2.02c-281.02,-195.92 -517.5,-307.91 -826.58,-442.77c-3.15,-1.38 -6.3,-2.77 -9.44,-4.18c-3.05,-1.29 -6.09,-2.61 -9.13,-3.93c-186.9,-81.68 -361.92,-160.03 -542.61,-256.95c-1.19,-0.67 -2.02,-1.32 -2.94,-2.32c-41.93,-43.54 -91.4,-65.72 -147.3,-86.19c-58.19,-20.1 -113.2,-33.21 -173.05,-46.43c-51.13,-10.82 -96.37,-18.37 -148.65,-17.58l0.01,0.01z" class="fil0"/>
   <path id="svg_25" d="m4031.37,1657.66c4.19,53.05 14.18,88.82 41.11,135.18c5.48,8.61 11.35,14.35 20.6,18.74c2.53,1.11 4.81,1.87 7.5,2.46c0.75,0.16 3.74,0.7 4.36,0.61c4.18,0.24 7.37,-0.15 11.34,-1.48c4.25,-1.59 7.09,-3.45 10.38,-6.57c4.07,-4.07 6.49,-7.94 8.9,-13.13c4.52,-11.27 9.76,-51.36 11.47,-51.94c9.73,1.33 3.04,48.85 0.66,56.93c-2.78,7.1 -5.72,12.28 -10.8,18c-4.71,4.94 -8.94,7.96 -15.24,10.64c-6.05,2.35 -10.97,3.16 -17.46,3.04c-2.27,-0.09 -4.28,-0.3 -6.52,-0.67c-1.8,-0.31 -9.83,-2.3 -10.89,-3.2c-12.72,-5.58 -20.86,-13.1 -28.5,-24.67c-29.14,-48.48 -40.33,-86.63 -45.23,-142.58c-0.61,-14.04 -1.54,-27.55 -1.57,-41.66c0,-0.7 0.01,-1.41 0.04,-2.11c-0.03,-0.73 -0.05,-1.46 -0.04,-2.19c0.09,-32.63 1.78,-65.26 1.95,-98.02c0.06,-17.55 0.83,-33.6 4.57,-50.8c2.75,-11.43 5.99,-21.09 13.83,-30.08c3.41,-3.63 6.41,-5.89 10.97,-7.93c4.43,-1.8 7.88,-2.41 12.64,-2.37c9.61,0.52 16.59,3.51 24.76,8.33c4.2,2.6 7.87,5.27 11.69,8.39c5.5,5.19 76.19,83.24 63.24,93.69c-1.21,0.33 -60.75,-70.72 -72.97,-81.39c-1.37,-1.05 -9.1,-6.59 -10.17,-6.83c-5.35,-3 -10.58,-5.43 -16.81,-5.62c-2.16,0.02 -3.72,0.3 -5.71,1.15c-2.16,1.03 -3.49,2.15 -5.1,3.91c-5.33,6.41 -7.63,14.52 -9.46,22.49c-3.17,15.83 -3.67,30.84 -3.6,46.94c0.15,32.83 -1.17,65.42 -1.16,98.16c0,0.72 -0.02,1.43 -0.05,2.15c0.04,0.69 0.05,1.37 0.05,2.06c0.02,13.6 0.37,26.76 1.24,40.37l-0.02,0zm-28.91,82.34c9.57,27.2 21.17,56.72 40.92,78.28c17.9,17.97 35.06,32.86 59.12,41.75c14.85,4.78 25.17,5.43 40.46,3.06c10.96,-1.93 21.77,-5.44 32.98,-5.29c6.75,0.42 11.45,2.02 16.85,6.16c5.98,5.04 9.08,10.44 12.22,17.5c12.43,29.65 13.94,38.64 32.12,67.22c32.39,48.63 75.27,98.7 95.54,152.84c1.3,3.52 2.54,7.06 3.7,10.63c1.37,3.96 2.66,7.94 3.88,11.94c11.31,37.34 18.98,76.26 26.41,114.5c7.27,35.61 21.47,67.72 40.33,98.69c12.22,18.84 23.63,32.92 40.83,47.54c17.43,13.95 32.22,21.72 54.2,26.33c41.61,7.59 78.49,12.81 120.98,11.15c36.84,-2.5 63.83,-8.85 94.96,-29.44c48.23,-35.12 70.13,-61.35 99.04,-112.51c56.39,-106.47 37.85,-148.25 101.46,-258.26c14.6,-25.73 19.72,-53.67 30.45,-81.26c7,-16.75 13.67,-28.5 25.77,-42.18c15.28,-16.17 29.55,-25.02 49.88,-33.83c35.9,-15.21 72.62,-30.07 99.36,-59.35c7.66,-8.97 12.9,-17.08 18.53,-27.41c12.78,-24.43 22.35,-50.72 32.11,-76.47c22.37,-74.47 15.5,-190.17 4.24,-267.93c-2.78,-16.49 -6.03,-31.5 -13,-46.77c-4.42,-8.86 -8.97,-16.04 -17.47,-21.41c-7.13,-3.96 -12.92,-4.59 -20.93,-3.56c-9.82,1.63 -17.54,5.14 -26.2,9.87c-12.37,8.08 -113.35,91.28 -118.13,89.23c-11.87,1.95 -259.31,-104.11 -293.09,-111.34c-105.89,-18.15 -208.34,-25.25 -314.18,-1.99c-0.9,0.23 -4.63,1.06 -5.19,1.35c-81.17,23.35 -116.81,54.92 -180.48,107.96c-8.41,6.7 -15.61,9.93 -26.42,10.44c-9.91,-0.01 -17.12,-2.39 -25.93,-6.72c-17.65,-9.4 -32,-22.35 -47.3,-35.05c-13.65,-11.2 -27.5,-22.54 -44.58,-27.88c-7.15,-1.87 -12.55,-2.16 -19.73,-0.2c-8.81,2.82 -14.56,7.52 -20.93,14.08c-9.87,10.93 -15.22,21.45 -20.46,35.11c-6.04,16.88 -9.1,31.99 -11.47,49.71c-4.86,42.71 -3.18,80.3 1.91,122.86c5.69,42.46 13.7,79.95 27.22,120.63l0.02,0.02zm356.16,-186.52c21.81,-0.55 40.55,2.97 61.7,7.71c11.87,2.75 23.59,5.79 35.37,8.89c39.41,10.37 73.6,19.25 114.49,23.79c46.21,3.96 79.83,0.96 123.69,-15.25c55.08,-20.75 103.94,-32.27 162.8,-22.54c22.23,4.61 38.76,10.76 57.74,23.32c17.06,12.11 27.81,23.69 38.23,41.83c9.93,18.78 14.07,34.44 15.65,55.58c1.07,23.56 -1.85,41.73 -8.69,64.22c-20.17,57.76 -51.16,96.78 -95.41,137.95c-12.66,12.2 -20.17,22.17 -26.62,38.33c-0.92,2.32 -1.77,4.67 -2.57,7.03c-0.72,2.33 -1.39,4.67 -2.02,7.02c-0.34,1.28 -0.78,2.76 -1.02,4.03c-5.48,23.41 -7.17,49.37 -10.25,73.32c-5.83,45.39 -6.89,93.19 -9.23,138.97c-2.63,47.61 -4.98,104.81 -22.47,149.34c-20.06,42.73 -45.44,68.31 -86.35,91.43c-40.95,20.88 -76.56,28.61 -122.45,27.12c-45.6,-3.35 -79.64,-14.5 -116.04,-42.55c-18.19,-15.17 -29.91,-29.06 -41.85,-49.5c-12.68,-23.23 -18.93,-42.69 -23.26,-68.71c-0.92,-5.93 -1.82,-11.87 -2.69,-17.81c-7.47,-53.52 -8.75,-92.63 -5.05,-146.68c0.62,-28.03 -10.06,-86.62 -15.78,-115.6c-1.89,-8.54 -3.6,-18.81 -6.37,-27.04c-0.83,-2.8 -1.72,-5.59 -2.84,-8.29c-0.4,-0.89 -1.62,-2.85 -1.23,-2.54c-41.94,-29.64 -41.56,-11.36 -78.43,-62.63c0.01,-0.04 -0.19,-0.28 -0.2,-0.31c-0.52,-0.87 -5.61,-10.17 -4.94,-11.16c0.07,-0.09 0,-0.26 0.23,-0.38c-21.49,-0.99 -35.26,-114.32 -35.28,-132.93c3.33,-50.94 16.26,-88.78 40.51,-133.67c8.32,-14.19 16.39,-23.42 30.63,-31.89c13.5,-7.27 24.78,-9.63 40,-10.44l0,0.04zm780,73.67c-0.02,-0.7 -0.02,-1.41 0,-2.12c0.39,-17.81 0.12,-35.72 -2.57,-53.36c-5.28,-32.11 -6.39,-109.48 -10.9,-127.67c-0.62,0.28 -1.21,0.63 -1.75,1.04c-0.52,0.39 -1.19,0.79 -1.73,1.19c-1.75,1.27 -4.31,3.26 -5.78,4.76c-7.39,6.86 -62.31,67.27 -66.96,65.47c-4.39,-6.85 50.67,-70.55 56.46,-76.73c2.17,-2.09 4.42,-4.13 6.78,-5.98c0.43,-0.34 2.02,-1.63 2.41,-1.79c2.94,-2.01 5.51,-3.42 9.01,-4.25c1.89,-0.39 3.41,-0.45 5.33,-0.18c2.01,0.35 3.53,0.94 5.24,2.07c2.99,2.14 4.52,4.44 5.94,7.78c5.88,17.33 8.54,100.34 13.79,131.01c3.18,18.81 3.76,37.96 3.4,57.01c-0.01,0.74 -0.04,1.47 -0.09,2.2c0.02,0.71 0.01,1.43 -0.01,2.14c-0.92,29.02 -4.06,55.75 -9.65,84.33c-5.71,26.22 -12.51,49.62 -27.09,72.44c-6.66,9.7 -12.94,16.67 -23.07,22.81c-10.5,5.77 -19.15,7.51 -31.04,6.24c-5.69,-0.85 -9.59,-2.47 -14.15,-5.96c-0.22,-0.27 -1.23,-1.03 -1.58,-1.35c-2.07,-1.89 -6.86,-7.59 -7.73,-10.15c-5.14,-10.09 -7.18,-19.43 -8.85,-30.52c-0.5,-3.64 -6.28,-62.28 0.35,-63.3c6.85,-0.08 12.3,55.18 13.3,60.95c1.85,8.93 3.96,17.35 8.52,25.33c1.44,2.36 2.76,4.14 4.85,5.96c0.1,0.09 0.73,0.61 0.8,0.63c2.09,1.48 3.8,2.14 6.36,2.43c8.04,0.66 13.67,-0.57 20.68,-4.61c7.58,-4.82 12.3,-10.5 17.25,-17.91c12.79,-20.8 18.78,-42.93 23.72,-66.63c5.17,-27.67 7.93,-53.21 8.69,-81.24c0.02,-0.69 0.05,-1.37 0.11,-2.06l-0.04,0.02z" class="fil0 str1"/>
   <path id="svg_26" d="m6091.87,2506.38c-134.89,-181.72 -235.53,-352.45 -345.68,-548.31c-7.16,-12.73 -197.5,-342.01 -196.85,-344.49c-3.39,0.21 -156.33,-203.84 -163.48,-212.84c-34.69,-42.78 -69.84,-83.76 -106.8,-124.63c-0.11,-0.04 -0.61,-0.81 -0.75,-0.93c-16.34,-21.58 -35.32,-34.86 -58.51,-48.32c-28.13,-15.59 -54.89,-26.38 -85.2,-36.88c-57.7,-19.06 -111.75,-31.48 -170.76,-44.31c-23.28,-4.52 -44.44,-5.32 -67.95,-5.12c-1.87,0.02 -3.74,0.04 -5.61,0.04c-1.96,0.07 -3.93,0.14 -5.9,0.19c-66.64,1.95 -139.94,12.06 -203.63,30.93c-105.4,16.31 -135.28,-42.97 -306.23,36.43c-24.26,12.5 -47.04,25.06 -69.93,39.92c-17.11,12.7 -141,157.76 -166.86,188.08c-0.71,0.83 -1.35,2.26 -1.89,3.96c3.11,2.05 6.28,3.97 9.53,5.72c6,2.96 11.23,4.95 18,4.98c6.69,-0.28 10.99,-2.44 16.19,-6.56c65.93,-54.6 102.98,-86.65 187.02,-110.39c0.65,-0.02 4.47,-1.15 5.44,-1.37c108.54,-23.07 212.14,-15.36 320.37,4.34c24.46,5.54 290.91,79.15 290.69,124.11c0.5,-8.27 106.35,-93.56 112.99,-98.13c9.87,-5.67 18.35,-9.59 29.62,-11.73c10.77,-1.59 18.7,-0.67 28.39,4.5c10.9,6.56 16.76,14.94 22.5,26.08c7.87,16.35 11.56,32.16 14.76,49.94c13.03,81.23 20.31,196.91 -2.52,275.36c-9.91,26.53 -19.53,53.29 -32.51,78.5c-6.14,11.45 -11.93,20.47 -20.34,30.44c-28.91,32.01 -66.04,47.41 -105.06,64.06c-17.9,7.81 -30.54,15.58 -43.96,29.88c-10.64,12.08 -16.41,22.5 -22.53,37.29c-11.35,29.41 -15.57,55.61 -31.43,83.75c-62.17,107.94 -43.65,150.15 -100.61,258.06c-15.18,27 -28.65,47.5 -44.7,65.88c14.33,3.18 48.12,45.42 50.81,49.33c13.93,22.83 21.16,42.9 25.75,69.31c2.28,15.77 2.66,28.7 0.69,44.56c-1.17,8.15 -2.77,15 -5.47,22.8c-3.91,10.59 -8.13,18.3 -15.38,27.01c-7.64,8.58 -14.52,13.7 -24.99,18.48c-82.29,37.89 -168.62,89.42 -245.22,138.19c-1.23,0.78 -2.46,1.55 -3.7,2.3c-1.26,0.84 -2.52,1.67 -3.8,2.49c-40.1,25.65 -78.83,51.9 -117.59,79.61c-72.67,52.83 -138.83,105.63 -200.94,170.81c-3.4,3.65 -6.76,7.31 -10.1,11.01c-13.59,15.29 -25.83,29.94 -37.32,45.58c-6.08,25.52 -66.84,154.69 -74.43,170.62c-34.79,74.18 -60.43,153.14 -71.73,234.39c-8.81,70.46 -3.49,161.63 84.55,175.91c65.37,9.46 109.41,9.89 172.12,-10.15c0.04,-0.02 0.08,-0.03 0.13,-0.04c7.58,-2.76 73.53,-30.57 116.03,-45.29c43.88,-20.61 122.7,-56.6 129.21,-59.94c101.31,-53.66 189.56,-119.02 281.84,-186.02c0.83,-0.61 1.67,-1.19 2.52,-1.77c0.78,-0.61 1.57,-1.2 2.37,-1.78c82.72,-59.98 171.56,-122.17 267.13,-159.35c5.48,-1.98 54.96,-18.29 94.23,-27.33c0.69,-11.63 51.92,-12.32 59.02,-12.15c11.81,-0.34 22.21,-2.82 33.62,-5.83c10.35,-2.8 20.14,-5.1 30.81,-6.38c7.39,-0.72 13.74,-0.95 21.02,0.78c3.07,0.84 5.34,1.76 8.02,3.5c2.56,1.77 4.22,3.45 5.91,6.07c1.5,2.48 2.27,4.59 2.81,7.43c0.1,2.04 0.79,5.26 0.3,7.29c-1.08,9.62 -4.29,17.11 -7.96,25.91c-1.41,3.38 -2.83,6.75 -3.98,10.23c-0.01,0 -0.31,0.99 -0.35,1.13c-0.11,0.35 -0.22,0.7 -0.35,1.05c-0.04,0.3 -0.1,0.6 -0.16,0.89c-0.05,0.25 -0.26,1.43 -0.22,1.52c0.49,4.39 2.25,7.76 4.59,11.46c3.5,5.24 7.48,9.46 11.95,13.88c11.83,11.42 24.78,21.8 36.94,32.96c11.98,11.27 21.8,21.58 30.59,35.56c0.56,0.91 4.28,7.25 4.36,7.81c1.91,4.43 5.93,18.59 7.88,31.82c6.54,-11.95 12.66,-22.52 14.25,-22.38c11.06,4.81 -16.16,58.46 -19,63.33c-3.54,5.48 -7.15,10.35 -11.3,15.39c-19.75,23.01 -40.37,37.8 -65.46,54.37c-10.56,6.52 -19.72,10.35 -31.7,13.1c-0.44,0.1 -0.89,0.19 -1.34,0.25c-0.42,0.13 -0.84,0.23 -1.27,0.32c-4.97,1.03 -10.36,1.85 -15.39,2.3c-15.22,1.48 -30.04,1.33 -45.22,2.3c-5.66,0.45 -10.85,1.03 -16.33,2.58c-3.74,1.18 -6.75,2.44 -9.59,5.22c-2.85,3.03 -3.87,6.01 -4.6,10.06c-1.06,7.02 -0.36,13.37 0.78,20.31c0.04,0.24 0.13,0.97 0.2,1.15c0.77,4.15 2.2,7.19 4.39,10.76c2.75,4.31 5.57,7.67 9.07,11.36c2.61,2.59 19.95,12.36 27.31,18.89c-0.89,-6.45 0.06,-12.19 2.74,-18.98c4.68,-10.43 11.12,-17.05 19.93,-24.15c12.65,-9.7 25.06,-15.94 39.66,-22.17c12.35,-5.09 24.78,-9.85 37.51,-13.91c0.56,-0.18 1.13,-0.35 1.71,-0.49c0.57,-0.21 1.15,-0.41 1.73,-0.59c23.88,-7.37 55.56,-12.36 76.7,-22.2c13.44,-7.5 19.58,-16.09 26.76,-29.45c1.44,-2.71 2.78,-5.4 4.11,-8.17c3.31,-7.41 25.08,-69.11 30.14,-68.91c8.21,4.19 -13.43,68.81 -15.75,75.15c-0.48,1.22 -3.57,8.75 -4,9.22c-8.52,16.92 -16.41,27.69 -32.99,37.41c-25.04,12.15 -52.96,16.52 -79.42,24.76c-0.56,0.18 -1.12,0.33 -1.69,0.48c-0.54,0.21 -1.07,0.39 -1.61,0.57c-12.45,4.02 -23.99,8.19 -36.17,13.1c-12.99,5.39 -24.42,10.88 -35.8,19.25c-6.23,4.88 -11.48,9.74 -14.96,16.96c-1.98,4.74 -2.43,8.36 -1.15,13.35c1.66,5.41 4.41,9.13 8.31,13.16c3.11,3.08 6.08,5.43 9.71,7.86c8.83,5.67 16.8,9.11 26.89,11.87c6.94,1.74 12.8,2.66 19.94,2.79c2.73,-0.09 9.75,-1.42 14.19,-1.45c-2.35,-4.66 -3.64,-9.22 -4.13,-14.99c-0.33,-7.81 1.03,-13.54 4.86,-20.35c4.52,-7.26 9.47,-11.51 16.89,-15.65c9.18,-4.69 17.04,-6.63 27.19,-7.76c1.88,-0.2 3.78,-0.4 5.65,-0.64c0.54,-0.06 1.09,-0.11 1.63,-0.15c0.56,-0.1 1.11,-0.19 1.67,-0.26c19.39,-2.48 35.11,-6.06 53.21,-13.93c16.08,-7.75 26.22,-15.55 37.66,-29.24c8.69,-10.99 14.33,-20.93 20.46,-33.42c3.13,-6.8 28.46,-73.19 34.46,-72.48c7.89,4.51 -17.86,73.09 -20.17,78.96c-6.06,14.07 -12.11,25.21 -21.35,37.54c-12.96,16.22 -24.79,25.61 -43.37,34.88c-19.67,8.93 -37.24,13.39 -58.48,16.18c-0.59,0.08 -1.19,0.14 -1.79,0.18c-0.57,0.1 -1.15,0.19 -1.72,0.26c-1.99,0.24 -4.01,0.44 -6,0.63c-7.5,0.77 -13.6,2.08 -20.43,5.44c-4.25,2.31 -7.31,4.65 -9.96,8.75c-1.95,3.35 -2.65,6.11 -2.54,9.99c0.3,4.35 1.53,7.51 3.8,11.21c3.06,4.63 6.34,7.63 10.95,10.69c6.1,3.83 11.41,5.76 18.43,7.31c10.24,2 18.55,1.97 28.84,0.72c10.71,-1.38 20.09,-4.17 30.22,-7.74c3.07,-1.08 37.75,-14.74 44.02,-11.79c-0.28,-0.28 -0.56,-0.57 -0.84,-0.87c-1.07,-1.19 -1.93,-2.32 -2.79,-3.68c-2.58,-4.35 -3.59,-7.94 -3.76,-12.99c0.11,-7.4 2.14,-12.75 5.72,-19.15c11.28,-17.9 27.92,-30.17 45.34,-41.66c7.88,-5.24 13.5,-11.8 19.1,-19.33c7.08,-9.84 12.23,-18.99 17.25,-30c4.81,-11.01 8.22,-20.81 10.69,-32.54c0.59,-3.56 1.79,-27.97 2.57,-28.43c6.76,-1.16 6.14,27.29 5.99,29.65c-1.31,12.85 -4.34,23.54 -8.87,35.63c-4.8,12.17 -9.9,22.15 -17.13,33.08c-6.45,9.3 -12.7,16.82 -21.98,23.47c-14.84,10.24 -30.43,21.86 -39.74,37.65c-1.95,3.64 -3.46,7.12 -3.42,11.31c0.1,1.93 0.46,3.26 1.5,4.91c0.16,0.24 0.95,1.32 1.14,1.44c2.58,2.61 5.47,3.87 8.91,5.02c5.48,1.63 10.35,2.06 16.06,2.09c16.84,-0.34 30.84,-4.3 46.42,-10.51c28.82,-12.22 57.97,-25.96 79.28,-49.55c6.35,-7.6 10.26,-13.98 13.31,-23.42c2.5,-8.59 2.99,-15.36 2.47,-24.26c-4.93,-42.96 -25.9,-78.13 -31.57,-126.74c-2.56,-28.91 -5.35,-58.67 -4.61,-87.74c0.04,-1.28 0.09,-2.56 0.19,-3.84c0.02,-1.31 0.07,-2.63 0.14,-3.94c3.54,-60.96 27.99,-99.41 60.71,-149.98c26.82,-41.35 45.98,-82.54 55.07,-131.28c3.44,-23.36 3.85,-42.7 -3.78,-65.31c-3.96,-10.44 -8.22,-17.75 -15.53,-26.2c-8.5,-9.25 -16.33,-14.89 -27.42,-20.67c-0.12,-0.03 -0.69,-0.34 -0.84,-0.42c-17.08,-8.24 -30.83,-12.34 -49.72,-13.85c-18.03,-0.89 -31.64,0.97 -48.91,5.91c-8.6,3.06 -75.53,45.58 -91.06,48.87c-10,17.45 -158.86,78.58 -172.06,83.41c-70.46,24.02 -128.97,31.81 -201.07,12.53c-0.44,-0.11 -0.88,-0.25 -1.31,-0.4c-0.43,-0.07 -0.85,-0.18 -1.27,-0.29c-62.76,-17.31 -85.86,-23.78 -152.31,-6.28c-12.96,4.06 -130.9,52.79 -132.07,51.87c-1.92,-14.54 116.56,-63.02 127.55,-66.9c63.77,-20.32 100.09,-13.4 161.71,3.3c0.41,0.11 0.81,0.24 1.22,0.38c0.43,0.09 0.87,0.19 1.29,0.3c70.71,18.91 121.36,12.55 191.37,-9.42c12.6,-4.23 150.56,-60.37 174.08,-69.03c-3.2,-14.76 82.61,-57.88 89.98,-60.83c2.41,-0.78 4.76,-1.5 7.07,-2.17c12.94,-11.94 45.44,-30.72 48.52,-32.39c16.51,-8.88 32.12,-15.69 50.01,-21.39c23.29,-6.61 42.7,-9.78 66.81,-8.05c0.37,0.04 0.74,0.07 1.1,0.14c0.39,0 0.77,0.01 1.15,0.05c4.13,0.37 8.36,0.93 12.44,1.61c33.17,5.52 66.6,19.13 98.52,29.87c5.59,1.85 56.98,15.84 62.98,22.14c-17.89,-53.96 -20.78,-95.37 -72.48,-168.19c-114.86,-138.67 -218.9,-217.53 -360.91,-322.46c-53.89,-39.96 -459.54,-355.86 -470.67,-422.83c3.5,1.16 438.24,379.72 479.94,410.18c143.97,105.02 249.06,184.61 365.27,324.24c107.6,150.78 11.9,166.39 238.35,413.99c81.44,86.34 99.5,94.75 104.89,208.58c0.23,4.97 0.44,9.94 0.63,14.92c0.27,5.22 0.51,10.44 0.75,15.66c0.24,5.29 0.49,10.59 0.74,15.87c0.06,1.54 -0.11,2.78 -0.58,4.24c-26.3,77.82 -30.38,46.6 -40,144.94c-3.77,42.62 -7.05,79.35 -18.19,121.12c-6.2,21.29 -12.83,37.97 -24.15,57.13c-12.33,19.73 -24.01,32.81 -42.58,46.93c-5.75,4.06 -10.71,5.84 -17.57,7.16c-6.52,1.08 -12.11,1.2 -18.69,0.95c-11.89,-0.63 -23.42,-2.44 -35.24,-3.14c-4.42,-0.19 -8.46,-0.23 -12.84,0.58c-2.47,0.54 -4.62,1.19 -6.49,2.96c-0.51,0.74 -1.39,1.5 -1.66,2.49c-0.37,1.37 -1.25,3.23 -1.17,4.68c-0.63,6.38 0.49,12.57 1.87,18.79c1.94,7.81 4.44,13.31 9.24,19.79c4.88,6.2 9.52,10.11 16.24,14.2c15.6,8.66 29.76,10.93 47.45,10.14c20.58,-1.71 35.77,-7.1 53.15,-18.24c19.78,-13.83 31.11,-28.09 41.43,-49.85c5.3,-11.1 11.25,-17.6 20.42,-25.57c8.15,-6.84 16.76,-12.91 25.02,-19.61c9.14,-7.59 15.5,-13.9 22.19,-23.82c7.98,-12.64 11.41,-23.3 13.96,-38c2.41,-14.02 5.72,-24.76 12.65,-37.22c6.63,-11.11 13.17,-18.54 23.9,-25.83c10.95,-6.89 20.24,-9.86 33.1,-11.03c14.37,-0.79 25.3,1.32 38.82,6.06c1.88,0.72 3.11,1.57 4.45,3.07c59.86,65.67 99.39,72.32 132.67,157.78c0.41,1.12 2.4,7.28 2.72,7.76c2.66,7.51 5.69,14.85 11.91,20.11c4.21,3.2 7.67,4.03 12.5,5.79c3.12,1.17 5.48,2.3 8.17,4.33c3.3,2.67 5.15,5.25 6.91,9.1c4.33,10.81 3.9,22.85 3.36,34.27c-0.51,11.1 -0.32,20.71 2.41,31.53c1.94,6.75 4.14,11.89 8.99,17.06c4,3.89 7.56,5.78 12.95,7.17c5.91,1.29 10.71,1.16 16.67,0.28c13.09,-2.37 23.53,-7.13 34.48,-14.58c4.3,-3.08 8,-6.11 11.46,-10.12c0.67,-0.98 2.59,-3.11 2.92,-4.2c0.13,-0.44 0.95,-1.88 0.84,-2.34c0.64,-11.39 -0.81,-18.5 -6.52,-28.36c-5.73,-9.2 -13.24,-17.31 -20.02,-25.79c-10.12,-13.04 -16.18,-23.11 -22.07,-38.64c-7.77,-22.71 -9.55,-41.81 -9.55,-65.69c0.02,-6.39 -0.22,-12.42 -2.09,-18.56c-1.26,-3.57 -2.55,-6 -5.43,-8.49c-5.95,-4.5 -14.74,-6 -21.86,-8.12c-13.38,-4.33 -21.18,-9.13 -30.4,-19.89c-6.16,-8.8 -27.51,-54.89 -21.7,-61.65c1.95,0.88 16.95,36.98 24.7,51.45c7.68,-11.5 71.41,17.09 84.35,26.49c14.26,12.48 22.06,23.95 31.09,40.46c2.43,4.55 4.7,9.12 6.95,13.76c10.09,20.9 17.21,36.89 32.06,55.38c19.84,22.71 39.43,33.23 67.68,43.21c11.09,2.28 58.24,24.06 65.81,23.11c2.19,0.17 3.82,0.11 5.94,-0.52c2.39,-0.79 4.09,-1.89 6.08,-3.41c5.77,-4.77 10.52,-10.56 15.09,-16.46c0.67,-0.85 1.35,-1.7 2.04,-2.54c0.22,-0.31 0.45,-0.63 0.67,-0.93c-2.96,-7.76 -6.14,-14.55 -10.83,-21.81c-3.68,-5.36 -7.02,-9.28 -12.25,-13.18c-9.02,-6.21 -16.64,-7.54 -27.23,-9.24c-13.39,-2.1 -22.19,-3.39 -34.2,-10.52c-7.01,-4.59 -11.46,-9.08 -16.46,-15.79c-6.12,-8.68 -9.83,-16.69 -13.56,-26.61c-10.55,-27.34 -21.35,-47.99 -42.94,-68.06c-8.57,-7.5 -16.11,-12.65 -26.07,-18.06c-8.01,-4.22 -15.68,-7.54 -24.07,-10.86c-17.03,-6.53 -33.51,-11.78 -49.08,-21.52c-8.16,-5.4 -13.76,-10.32 -19.65,-18.14c-1.7,-2.58 -14.99,-25.65 -9.46,-28.6c1.99,-0.27 14.18,18.74 17.26,22.25c5.76,6.11 10.83,9.85 18.15,13.99c15.06,7.98 31.83,12.58 47.93,18.14c9.16,3.22 17.4,6.5 26.14,10.8c11.35,5.76 19.93,11.45 29.68,19.71c24.29,21.72 36.56,44.14 48.46,74.26c3.18,8.21 6.34,15.08 11.51,22.25c3.56,4.69 6.71,7.94 11.68,11.11c9.15,5.33 17.2,6.22 27.45,7.74c7.03,1.08 12.83,2.11 18.39,3.89c0.46,-0.43 27.69,3.69 31.85,3.06c2.8,-0.62 4.96,-1.44 7.1,-3.4c1.61,-1.62 2.34,-3.09 2.78,-5.33c0.41,-2.8 0.03,-5.07 -0.76,-7.77c-1.24,-3.72 -2.88,-6.58 -5.13,-9.78c-6.98,-9.19 -14.87,-14.91 -24.85,-20.59c-16.77,-9.53 -28.72,-18.58 -39.16,-35.06c-6.91,-12.13 -9.13,-21.23 -12.07,-34.63c-2.21,-10.11 -3.82,-18.06 -9.72,-26.82c-3.35,-4.56 -6.57,-7.41 -11.24,-10.59c-6.72,-4.33 -13,-6.9 -20.56,-9.44c-48.21,-16.05 -94.44,-32.64 -139.64,-56.1c-6.07,-3.24 -11.98,-6.59 -17.86,-10.17c-26.59,-16.8 -43.29,-30.67 -60.39,-57.27c-40.94,-68.95 -38.15,-75.72 -112.54,-125.91c-1.89,-1.25 -3.06,-2.58 -4.06,-4.61c-0.91,-2.06 -1.19,-3.79 -0.95,-6.04c7.71,-72.52 3.18,-126.66 -15.67,-197c-20.06,-67.63 -44.85,-118.69 -80.87,-178.91c-31.21,-50.34 -63.28,-95.56 -99.05,-142.46c-1.61,-2.11 -3.2,-4.21 -4.78,-6.33c-1.7,-2.17 -3.39,-4.33 -5.07,-6.52c-48.03,-62.43 -97.61,-123.39 -145.43,-186.09l-0.01,0.06z" class="fil0"/>
   <path id="svg_27" d="m4423.76,1814.61c0.98,1.91 2.02,3.18 3.63,4.59c1.86,1.53 3.51,2.44 5.74,3.35c1.31,0.52 2.55,0.91 3.92,1.26c2.04,0.52 10.03,1.66 11.88,1.09c5.02,-0.41 15.34,-3.68 18.19,-0.61c-2.46,-3.37 4.21,-12.4 6.11,-16.77c1.36,-3.16 2.06,-5.76 1.89,-9.22c-0.04,-0.12 -0.11,-1.11 -0.15,-1.35c-0.21,-1.4 -1.19,-4.67 -2.04,-5.69c-1.62,-2.75 -3.42,-4.67 -5.81,-6.77c-2.97,-2.41 -5.25,-3.26 -9.02,-3.87c-7.65,-1.02 -16.15,-1.91 -23.42,1.31c-1.02,0.5 -1.66,0.89 -2.58,1.51c-0.11,0.07 -0.22,0.14 -0.35,0.19c-0.09,0.11 -0.19,0.2 -0.3,0.29c-0.78,0.6 -2.71,2.33 -3.07,3.06c-2.59,3.39 -3.87,6.91 -5.02,10.99c-0.9,3.5 -1.39,6.45 -1.25,10.07c0.19,2.47 0.57,4.33 1.64,6.58l0.01,-0.01z" class="fil0 str2"/>
   <path id="svg_28" d="m4728.47,1778.62c-1.68,1.03 -5.77,4.54 -6.44,6.33c-2.71,4.13 -5.49,13.14 -9.58,13.34c4.01,0.04 5.02,5.81 7.17,8.02c1.33,2.06 2.61,3.59 4.44,5.21c1.94,1.68 3.74,2.76 6.09,3.8c0.9,0.39 4.75,1.74 5.49,1.66c4.48,0.76 8.2,0.52 12.49,-1.06c1.9,-0.78 3.25,-1.57 4.81,-2.9c1.49,-1.34 2.43,-2.54 3.37,-4.32c2.2,-4.37 3.7,-8.16 4.07,-13.04c-0.02,-0.07 0.04,-0.93 0.04,-1.12c0.01,-0.15 0.02,-0.29 0.06,-0.43c-0.03,-0.13 -0.05,-0.27 -0.05,-0.41c-0.02,-1.59 -0.49,-5.67 -1.35,-6.8c-1.24,-2.72 -2.65,-4.45 -4.93,-6.38c-2.53,-2 -4.77,-3.1 -7.85,-4.05c-3.19,-0.87 -5.74,-1.13 -9.04,-0.83c-3.19,0.39 -5.5,1.1 -8.29,2.67c-0.03,0.03 -0.46,0.27 -0.53,0.31l0.03,0z" class="fil0 str2"/>
   <path id="svg_29" d="m8784.14,3477.12c-35.88,-6.13 -71.13,-6.49 -107.22,-12.99c-5.77,-1.37 -11.83,-3.93 -17.86,-7.07c-4.67,11.1 47.12,37.65 51.23,39.61c13.82,6.05 27.43,10.68 41.87,15.04c33.26,9.63 66.12,16.56 99.96,23.45c0.44,0.09 0.88,0.16 1.32,0.21c0.41,0.12 0.83,0.22 1.25,0.3c3.86,0.78 7.89,1.46 11.84,2.23c-0.29,0 -32.36,-43.04 -36.12,-45.39c-15.31,-8.4 -29.2,-12.1 -46.28,-15.39l0.01,0z" class="fil0"/>
   <path id="svg_30" d="m6705.54,3519.11c9.96,5.41 17.5,10.56 26.07,18.06c21.59,20.07 32.39,40.72 42.94,68.06c3.73,9.91 7.44,17.93 13.56,26.61c5,6.71 9.44,11.2 16.46,15.79c12.01,7.13 20.8,8.42 34.2,10.52c10.59,1.7 18.21,3.03 27.23,9.24c5.23,3.91 8.57,7.82 12.25,13.18c5.36,8.32 8.76,16.02 12.11,25.25c-0.4,-1.15 -0.48,-2.13 -0.32,-3.34c0.22,-1.24 0.56,-2.1 1.29,-3.11c0,0 -0.66,0.88 -0.95,1.27c-0.67,0.88 -1.32,1.77 -1.97,2.68c-0.69,0.84 -1.37,1.69 -2.04,2.54c-4.57,5.89 -9.33,11.69 -15.09,16.46c-1.99,1.52 -3.69,2.62 -6.08,3.41c-2.12,0.63 -3.75,0.69 -5.94,0.52c-7.57,0.94 -54.72,-20.84 -65.81,-23.11c-28.25,-9.98 -47.83,-20.5 -67.68,-43.21c-14.85,-18.48 -21.96,-34.48 -32.06,-55.38c-2.25,-4.63 -4.53,-9.21 -6.95,-13.76c-9.03,-16.51 -16.83,-27.98 -31.09,-40.46c-13.11,-9.53 -78.4,-38.76 -84.63,-26.01c1.15,5.96 67.2,29.81 75.37,36.54c12.23,11.62 18.8,22.24 26.43,37.16c2.21,4.44 4.3,8.88 6.38,13.38c10.39,22.73 17.65,39.28 33.44,59.39c21.83,25.69 43.56,37.91 75.08,49.27c17.85,6.25 52.89,22.18 69.81,24.5c4.81,0.41 8.41,0.15 13.06,-1.19c4.77,-1.53 8.05,-3.41 12.02,-6.41c4.22,-2.16 14.87,-15.02 18.45,-19.61c0.71,-0.91 1.4,-1.82 2.07,-2.76c0.74,-0.89 1.44,-1.81 2.15,-2.74c0.26,-0.35 0.71,-1.04 0.97,-1.3c1.24,-1.7 1.87,-3.22 2.23,-5.31c0.28,-2.13 0.1,-3.73 -0.59,-5.77c-3.96,-10.78 -7.96,-19.54 -14.31,-29.23c-5.07,-7.33 -9.67,-12.44 -16.86,-17.75c-12.01,-8.14 -21.16,-10.1 -35.19,-12.25c-10.25,-1.52 -18.3,-2.41 -27.45,-7.74c-4.97,-3.17 -8.13,-6.42 -11.68,-11.11c-5.17,-7.17 -8.33,-14.04 -11.51,-22.25c-11.9,-30.12 -24.17,-52.54 -48.46,-74.26c-9.76,-8.26 -18.33,-13.95 -29.68,-19.71c-8.74,-4.3 -16.98,-7.58 -26.14,-10.8c-16.1,-5.56 -32.87,-10.16 -47.93,-18.14c-7.31,-4.13 -12.39,-7.88 -18.15,-13.99c-3.08,-3.51 -15.27,-22.52 -17.26,-22.25c-5.53,2.96 7.76,26.02 9.46,28.6c5.89,7.82 11.48,12.74 19.65,18.14c15.57,9.73 32.05,14.98 49.08,21.52c8.39,3.32 16.07,6.64 24.07,10.86l-0.01,0z" class="fil1"/>
   <path id="svg_31" d="m5456.18,3559.12c-10.29,1.25 -18.61,1.28 -28.84,-0.72c-7.02,-1.56 -12.32,-3.48 -18.43,-7.31c-4.61,-3.06 -7.89,-6.06 -10.96,-10.69c-2.27,-3.7 -3.5,-6.86 -3.8,-11.21c-0.1,-3.87 0.59,-6.64 2.54,-9.99c2.65,-4.1 5.71,-6.44 9.96,-8.75c6.83,-3.36 12.93,-4.67 20.43,-5.44c1.99,-0.19 4.01,-0.39 6,-0.63c0.58,-0.07 1.15,-0.15 1.72,-0.26c0.6,-0.04 1.2,-0.1 1.79,-0.18c21.24,-2.79 38.81,-7.25 58.48,-16.18c18.58,-9.28 30.41,-18.67 43.37,-34.89c9.25,-12.33 15.3,-23.47 21.35,-37.54c2.31,-5.87 28.07,-74.45 20.17,-78.96c-6,-0.7 -31.33,65.69 -34.46,72.48c-6.12,12.48 -11.77,22.43 -20.46,33.42c-11.43,13.69 -21.58,21.49 -37.65,29.24c-18.11,7.87 -33.83,11.44 -53.22,13.93c-0.56,0.07 -1.11,0.16 -1.67,0.26c-0.55,0.03 -1.09,0.08 -1.64,0.15c-1.88,0.24 -3.77,0.44 -5.65,0.64c-10.15,1.13 -18.02,3.07 -27.19,7.76c-7.42,4.14 -12.37,8.39 -16.89,15.65c-3.83,6.81 -5.19,12.54 -4.86,20.35c0.66,7.72 2.75,13.28 6.89,19.79c4.73,6.87 9.49,11.2 16.5,15.69c8.13,4.87 15.16,7.35 24.43,9.19c12.32,2.03 22.23,1.78 34.48,-0.28c12.13,-2.3 21.8,-5.49 33.08,-10.44c3.79,-1.77 41.22,-17.64 39.61,-23.76c-2.33,-5.67 -41.6,9.81 -44.88,10.96c-10.13,3.58 -19.51,6.36 -30.22,7.74l0.02,-0.02z" class="fil1"/>
   <path id="svg_32" d="m5319.41,3532.02c-3.63,-2.44 -6.6,-4.78 -9.71,-7.87c-3.9,-4.03 -6.65,-7.74 -8.31,-13.16c-1.28,-5 -0.83,-8.61 1.15,-13.35c3.48,-7.22 8.73,-12.09 14.96,-16.96c11.37,-8.37 22.81,-13.86 35.8,-19.25c12.18,-4.91 23.72,-9.08 36.17,-13.1c0.54,-0.17 1.08,-0.36 1.61,-0.57c0.57,-0.15 1.13,-0.3 1.69,-0.48c26.46,-8.24 54.39,-12.6 79.42,-24.76c16.58,-9.72 24.47,-20.49 32.99,-37.41c0.43,-0.47 3.52,-8 4,-9.22c2.32,-6.34 23.96,-70.96 15.75,-75.15c-5.06,-0.2 -26.83,61.5 -30.14,68.91c-1.33,2.77 -2.66,5.45 -4.11,8.17c-7.18,13.35 -13.32,21.95 -26.76,29.44c-21.15,9.85 -52.83,14.83 -76.7,22.2c-0.58,0.18 -1.16,0.38 -1.73,0.59c-0.57,0.15 -1.15,0.31 -1.71,0.49c-12.73,4.06 -25.16,8.82 -37.51,13.91c-14.59,6.23 -27,12.47 -39.65,22.17c-8.81,7.1 -15.25,13.72 -19.93,24.15c-3.49,8.83 -4.03,15.88 -1.44,25.02c2.84,8.4 6.8,13.9 13.11,20.02c1.21,1.9 10.3,8.05 12.73,9.48c10.78,6.15 20.23,9.63 32.41,11.81c8.33,1.3 15.49,1.68 23.81,0.17c2.53,-0.57 20.35,-5.55 16.77,-11.31c-1.76,-2 -14.02,0.56 -17.85,0.69c-7.14,-0.13 -12.99,-1.05 -19.94,-2.79c-10.08,-2.76 -18.06,-6.2 -26.89,-11.87l0.01,0.03z" class="fil1"/>
   <path id="svg_33" d="m5242.96,3467.6c-1.14,-6.94 -1.83,-13.3 -0.78,-20.31c0.73,-4.04 1.76,-7.02 4.6,-10.06c2.84,-2.77 5.85,-4.04 9.59,-5.22c5.48,-1.55 10.67,-2.13 16.33,-2.58c15.18,-0.97 30,-0.82 45.22,-2.3c5.03,-0.45 10.42,-1.27 15.39,-2.3c0.43,-0.09 0.85,-0.19 1.27,-0.32c0.45,-0.06 0.9,-0.15 1.34,-0.25c11.99,-2.74 21.15,-6.58 31.7,-13.1c25.09,-16.56 45.72,-31.35 65.46,-54.37c4.15,-5.04 7.76,-9.91 11.3,-15.39c2.84,-4.87 30.06,-58.53 19,-63.33c-3.34,-0.29 -26.74,46.81 -31.97,54.51c-3.45,4.73 -6.95,9.06 -10.83,13.44c-19.21,20.9 -39.12,34.58 -62.85,49.79c-8.85,5.29 -16.04,8.03 -25.96,10.26c-0.38,0.09 -0.76,0.19 -1.13,0.3c-0.37,0.04 -0.74,0.11 -1.11,0.19c-4.51,0.97 -9.04,1.63 -13.62,2.19c-14.94,1.65 -29.74,1.69 -44.7,2.95c-7.08,0.68 -13.22,1.57 -20.04,3.68c-6.87,2.31 -11.72,4.88 -16.81,10.13c-5.3,6.01 -7.44,11.53 -8.64,19.37c-1.01,9.16 -0.06,16.81 1.85,25.75c0.06,0.28 0.28,1.07 0.29,1.3c1.59,6.28 3.89,10.67 7.65,15.88c3.79,4.96 7.49,8.66 12.26,12.65c2.19,2.14 35.73,20.09 39.35,14.27c2.23,-4.43 -27.04,-20.43 -30.49,-23.86c-3.5,-3.7 -6.33,-7.05 -9.07,-11.36c-2.19,-3.57 -3.63,-6.61 -4.39,-10.76c-0.07,-0.18 -0.16,-0.91 -0.2,-1.15l-0.01,0z" class="fil1"/>
   <path id="svg_34" d="m5436.91,3260.83c-8.8,-13.98 -18.62,-24.29 -30.59,-35.56c-12.17,-11.16 -25.11,-21.54 -36.94,-32.96c-4.47,-4.41 -8.45,-8.64 -11.95,-13.88c-2.34,-3.7 -4.1,-7.07 -4.59,-11.46c-0.04,-0.1 0.17,-1.27 0.22,-1.52c0.06,-0.29 0.11,-0.59 0.16,-0.89c0.13,-0.35 0.24,-0.7 0.35,-1.05c0.04,-0.14 0.34,-1.13 0.35,-1.13c1.15,-3.48 2.57,-6.85 3.98,-10.23c3.67,-8.8 6.88,-16.28 7.96,-25.91c0.49,-2.02 -0.19,-5.25 -0.3,-7.29c-0.54,-2.84 -1.31,-4.94 -2.81,-7.43c-1.69,-2.62 -3.35,-4.3 -5.91,-6.07c-2.68,-1.74 -4.96,-2.67 -8.02,-3.5c-7.28,-1.72 -13.63,-1.5 -21.02,-0.78c-10.67,1.28 -20.46,3.58 -30.81,6.38c-11.41,3.01 -21.81,5.49 -33.62,5.83c-7.17,-0.17 -59.32,0.53 -59.03,12.49c0.18,0.31 53.64,2.61 58.72,3.2c12.28,0.65 26.46,-2.09 38.22,-5.23c9.44,-2.34 18.55,-4.3 28.25,-5.22c4.82,-0.4 9.94,-0.67 14.67,0.58c0.85,0.08 1.82,0.76 2.57,1.11c0.32,0.15 0.45,0.46 0.64,0.68c0.19,0.22 0.24,0.82 0.33,1.08c0.19,0.56 0.02,2.01 0.02,2.61c-0.89,6.81 -4.19,13.93 -6.89,20.24c-1.65,3.83 -3.3,7.64 -4.63,11.59c-0.19,0.51 -0.37,1.11 -0.52,1.65c-0.18,0.58 -0.32,1.17 -0.44,1.76c-0.18,0.56 -0.33,1.13 -0.45,1.7c-0.56,2.49 -0.68,4.79 -0.47,7.34c0.99,7.7 3.56,13.19 7.78,19.67c4.43,6.42 9.1,11.33 14.7,16.72c12.22,11.37 25.41,21.58 37.95,32.62c10.86,9.91 20.57,19.25 29,31.4c1.48,2.15 2.84,4.26 4.17,6.5c6.98,13.19 14.54,50.28 16.04,50.77c13.76,0.07 1.18,-49.02 -2.7,-58.01c-0.08,-0.56 -3.8,-6.9 -4.36,-7.81l-0.03,0.01z" class="fil1"/>
   <path id="svg_35" d="m9004.73,3709.15c2.13,-0.73 4.16,-1.51 6.23,-2.41c8.11,-3.69 14.09,-7.48 20.23,-14.02c2.75,-3.13 4.56,-5.78 6.33,-9.56c1.67,-3.84 2.44,-6.95 2.66,-11.14c0.09,-4.37 -0.51,-7.61 -2.05,-11.69c-1.78,-4.32 -3.72,-7.28 -6.76,-10.82c-7.7,-8.4 -15.95,-13.1 -26.24,-17.75c-14.92,-6.38 -28.81,-9.85 -44.7,-12.87c-20.52,-4 -48.68,-9.17 -66.81,-20.81c-0.3,-0.19 -0.6,-0.37 -0.91,-0.53c-0.28,-0.22 -0.56,-0.43 -0.85,-0.63c-24.84,-16.67 -22.96,-17.61 -56.6,-24.25c-39.95,-6.94 -73.63,-14.72 -110.35,-31.92c-7.08,-3.43 -79.96,-42.65 -84.75,-37.61c-3.19,5.93 72.66,48.96 77.75,51.65c38.83,20.11 71.33,27.49 114.24,35.55c31.52,6.5 26.85,6.72 49.26,22.02c0.37,0.25 0.74,0.48 1.13,0.69c0.34,0.27 0.7,0.52 1.07,0.76c20.17,12.84 50.75,18.9 73.63,22.93c14.42,2.61 27.32,5.63 40.93,11.17c7.63,3.35 14.58,6.94 20.4,13.03c1.62,1.82 2.82,3.47 3.8,5.71c0.67,1.7 0.98,3.04 0.98,4.87c-0.04,1.81 -0.39,3.22 -1.08,4.89c-0.91,2.1 -1.98,3.65 -3.44,5.4c-4.25,4.78 -8.76,7.65 -14.46,10.44c-0.53,0.41 -4.09,1.8 -4.94,2.13c-5.99,2.25 -11.26,3.56 -17.59,4.52c-22.93,2.66 -37.07,-0.19 -58.22,-7.76c-0.01,0 -0.41,-0.19 -0.43,-0.18c-1.9,-0.48 -8.09,-2.45 -9.4,-0.01c-1.04,2.34 4.91,6.17 6.36,6.95c0.05,0.02 -0.13,-0.05 -0.14,-0.04c19.48,13.31 40.24,16.98 63.57,15.73c7.63,-0.8 13.87,-2.07 21.16,-4.46l-0.01,0.02z" class="fil1"/>
   <path id="svg_36" d="m8993.87,3568.57c-1.33,-1.67 -2.64,-3.14 -4.15,-4.66c-4.96,-4.89 -9.73,-8.28 -15.7,-11.84c-29.59,-16.51 -64.81,-23.88 -97.72,-30.94c-5.96,-1.27 -11.94,-2.55 -17.92,-3.75c-0.42,-0.09 -0.84,-0.16 -1.27,-0.21c-0.43,-0.12 -0.87,-0.22 -1.3,-0.31c-33.53,-6.61 -65.77,-12.74 -98.94,-21.53c-12.89,-3.02 -28.08,-8.38 -40.57,-13.16c-6.88,-2.8 -54.21,-27.96 -56.72,-25.99c-8.03,10.51 46.5,38.46 50.72,40.48c13.82,6.05 27.43,10.68 41.87,15.04c33.26,9.63 66.12,16.56 99.96,23.45c0.44,0.09 0.88,0.16 1.32,0.21c0.41,0.12 0.83,0.22 1.25,0.3c5.85,1.17 12.11,2.15 17.84,3.52c30.54,6.21 65.45,13.06 93.26,27.28c4.78,2.68 8.76,5.25 12.84,8.91c0.78,0.56 2.41,2.37 3.11,3.16c1.84,2.13 3.15,3.99 4.43,6.5c1.86,3.93 2.55,7.02 2.68,11.35c0.04,5.61 -0.94,10.03 -2.68,15.32c0,0.02 0.37,-0.7 0.51,-0.76c0.59,-0.27 -13.86,18.46 -9.76,21.72c3.67,2.92 17.2,-12.42 18.94,-14.44c0.52,-0.63 0.88,-1.2 1.22,-1.95c3.18,-6.57 4.96,-12.06 5.68,-19.36c0.39,-6.73 -0.35,-11.67 -2.8,-17.98c-0.33,-2.03 -4.7,-8.58 -6.11,-10.37l0.01,0.01z" class="fil1"/>
   <path id="svg_37" d="m5110.11,3152.87c-95.57,37.17 -184.41,99.36 -267.13,159.35c-0.8,0.58 -1.59,1.17 -2.37,1.78c-0.85,0.57 -1.69,1.16 -2.52,1.77c-92.28,66.99 -180.53,132.35 -281.84,186.02c-9.06,4.65 -158.11,72.5 -158.24,74.21c9.33,11.26 155.54,-55.48 165.44,-60.27c101.46,-51 193.95,-118.32 285.6,-184.87c0.83,-0.6 1.65,-1.22 2.46,-1.85c0.82,-0.55 1.63,-1.12 2.43,-1.7c83.47,-60.53 166.3,-119.84 262.05,-159.9c9.61,-3.8 136.84,-44.31 136.93,-44.78c-7.11,-14.58 -133.84,26.98 -142.8,30.23l-0.01,0.01z" class="fil1"/>
   <path id="svg_38" d="m2254.12,3674.32c8.84,-6.86 17.97,-12.57 27.57,-18.3c13.74,-8.37 25.58,-16.63 34.61,-30.21c5.95,-10.09 7.63,-17.84 7.09,-29.44c0.35,-1.37 -2.61,-20.12 -2.83,-23.96c-0.33,-8.69 0.73,-14.24 4.74,-21.96c0.15,-0.67 1.46,-1.59 1.84,-2.03c0.47,-0.54 2.89,-1.66 3.7,-1.99c0.1,-0.04 0.51,-0.19 0.57,-0.23c0.06,-0.05 0.35,-0.16 0.44,-0.21c0.35,-0.09 0.69,-0.19 1.02,-0.3c4.91,-1.63 10.52,-2.39 15.61,-3.03c19.25,-2.19 38.49,-2.93 57.95,-5.21c28.52,-3.79 55.58,-10.07 81.74,-22.34c6.17,-3.17 76.68,-45.16 68.85,-57.31c-1.16,-0.74 -64.91,38.32 -75.2,42.96c-26.75,10.83 -48.86,15.69 -77.48,19.02c-2.65,1.28 -49.06,3.51 -57.94,4.5c-6.41,0.72 -13.14,1.67 -19.3,3.67c-0.53,0.17 -1.05,0.37 -1.56,0.59c-0.23,0.07 -0.55,0.2 -0.76,0.24c-0.23,0.05 -0.73,0.27 -0.98,0.37c-3,1.22 -5.38,2.57 -8,4.52c-3.04,2.41 -4.96,4.62 -6.85,8.02c-5.61,11.01 -7.24,19.52 -6.61,31.84c-0.44,2.09 2.84,19.8 3.15,24.03c0.47,7.64 -0.31,12.33 -4.15,19.05c-6.87,10.88 -17.65,18.33 -28.35,25.09c-10.15,6.35 -19.83,12.74 -28.91,20.56c-0.16,0.14 -0.37,0.34 -0.53,0.47c-7.32,6.54 -13.64,12.95 -16.93,22.4c-1.4,4.59 -1.62,8.22 -0.38,12.88c1.55,4.8 3.78,7.82 7.46,11.19c4.9,3.5 32.31,16.98 35.54,10.42c0.36,-3.13 -20.48,-13.2 -26.81,-19.53c-1.51,-1.68 -2.63,-3.23 -3.06,-5.48c-0.26,-1.78 0.05,-3.09 0.7,-4.75c2.8,-6.04 8.52,-11 13.56,-15.15c0.03,-0.04 0.41,-0.32 0.48,-0.38l0.01,-0.01z" class="fil1"/>
   <g id="_2279405982192">
    <path id="svg_39" d="m3489.83,3398.99c-0.94,0.03 -1.88,0.09 -2.82,0.15c-0.87,-0.01 -1.74,0 -2.61,0.03c-85.24,3.72 -358.4,29.44 -425.96,59.34c81.46,2.43 305.68,-33.1 426.75,-36.43c0.87,-0.03 1.73,-0.08 2.59,-0.13c0.93,-0.01 1.87,-0.02 2.8,-0.05c139.76,-5.59 327.39,18.63 427.59,12.73c-73.4,-29.87 -339.17,-37.77 -428.34,-35.65l0,0.01z" class="fil1"/>
   </g>
   <path id="svg_40" d="m3058.44,3458.5c266.14,-51.89 591.31,-68.04 859.74,-23.88" class="fil4"/>
   <path id="svg_41" d="m5725.22,3426.66c65.87,-34.01 145.66,-10 244.79,-26.04c110.74,-17.92 99.29,1.31 201,12.11" class="fil4 str3"/>
   <g id="_2279405978448">
    <path id="svg_42" d="m7393.57,3410.65c-1.5,0.01 -3.01,0.04 -4.52,0.08c-1.4,-0.04 -2.79,-0.05 -4.19,-0.04c-107.18,0.45 -214.61,2.09 -321.8,3.2c-63.69,-0.61 -355.76,-25.25 -390.55,-17.06c41.11,10.67 341.78,32.71 390.5,34.31c106.67,2.38 215.15,2.93 321.94,2.48c1.4,0 2.79,-0.03 4.19,-0.06c1.51,0.02 3.02,0.03 4.52,0.02c89.97,-0.39 180.03,-2.87 269.99,-3.7c118.3,0.76 211.59,28.3 325.64,48.68c3.74,0.38 110.97,2.24 112.13,1.85c-4.9,-8.01 -94.65,-8.43 -110.41,-10.79c-114.9,-25.31 -207.33,-54.83 -327.46,-58.11c-89.96,-0.41 -180.03,-0.93 -269.99,-0.87l0.01,0.01z" class="fil1"/>
   </g>
   <path id="svg_43" d="m6672.52,3396.81c123.89,1.54 262.13,25.32 390.52,25.7c201.75,0.59 398.88,-0.71 600.57,-1.82c112.02,-0.61 217.83,32.43 326.55,53.39c29.78,5.74 89.46,-1.67 111.28,6.31" class="fil4"/>
   <path id="svg_44" d="m8784.14,3477.12c-34.49,-5.89 -68.4,-6.46 -103.04,-12.26c2.41,1.17 4.9,2.39 7.38,3.61c12.3,6.08 24.57,12.39 27.81,13.7c12.48,4.78 27.68,10.14 40.57,13.16c33.17,8.79 65.41,14.92 98.94,21.53c0.11,0.02 0.22,0.05 0.33,0.08c-9.47,-9.34 -23.27,-22.9 -25.71,-24.43c-15.31,-8.4 -29.2,-12.1 -46.28,-15.39z" class="fil0"/>
   <path id="svg_45" d="m2276.74,3703.24c97.87,-69.14 23.62,-84.32 148.46,-150.07c28.78,-14.66 48.03,-26.8 62.34,-37.76c-25.95,12.07 -52.81,18.28 -81.09,22.04c-19.46,2.28 -38.7,3.02 -57.95,5.21c-5.09,0.63 -10.7,1.39 -15.61,3.03c-0.34,0.11 -0.68,0.21 -1.02,0.3c-0.09,0.05 -0.39,0.16 -0.44,0.21c-0.06,0.04 -0.47,0.19 -0.57,0.23c-0.81,0.33 -3.23,1.45 -3.7,1.99c-0.38,0.43 -1.69,1.35 -1.84,2.03c-4.02,7.72 -5.07,13.28 -4.74,21.96c0.22,3.84 3.18,22.59 2.83,23.96c0.54,11.6 -1.14,19.35 -7.09,29.44c-9.04,13.57 -20.87,21.84 -34.61,30.21c-9.6,5.72 -18.73,11.44 -27.57,18.3c-0.07,0.06 -0.45,0.34 -0.48,0.38c-5.04,4.15 -10.76,9.11 -13.56,15.15c-0.65,1.66 -0.96,2.97 -0.7,4.75c0.43,2.26 1.56,3.8 3.06,5.48c3.94,3.94 13.49,9.33 20.07,13.59c4.83,-3.86 9.72,-7.35 14.23,-10.43l-0.02,0z" class="fil0 str0"/>
   <path id="svg_46" d="m2920.5,3487.51c266.14,-51.89 591.31,-68.04 859.74,-23.88" class="fil4"/>
   <path id="svg_47" d="m6534.59,3425.82c123.89,1.54 262.13,25.32 390.52,25.7c201.75,0.59 398.88,-0.71 600.57,-1.82c112.02,-0.61 217.83,32.43 326.55,53.39c29.78,5.74 89.46,-1.67 111.28,6.31" class="fil4"/>
   <g id="_2279405978112">
    <g id="svg_48">
     <path id="svg_49" d="m10694.34,3595.94c-1.97,-0.27 -3.94,-0.5 -5.93,-0.72c-1.88,-0.28 -3.77,-0.54 -5.66,-0.77c-151.3,-17.8 -333.44,-14.63 -484.98,-14.09c-242.26,0.58 -966.87,-27.06 -1163.56,18.62c389.81,0.3 771.56,-1.55 1163.65,1.3c152.76,0.23 329.76,-1.6 482.14,16.94c1.84,0.22 3.69,0.44 5.53,0.65c1.91,0.27 3.83,0.54 5.74,0.8c14.84,2.02 28.93,4.22 43.6,7.5c8.4,2.07 21.56,5.42 28.55,10.72c0.3,0.15 0.82,0.79 1.08,1.06c0,0 -0.26,-0.73 -0.21,-0.75c-0.05,-0.4 -0.05,-0.75 0.07,-1.14c0.02,-0.17 -0.27,0.63 -0.35,0.58c-3.84,5.01 -13.26,9.75 -18.81,12.48c-13.72,6.5 -27.55,11.37 -41.96,16.09c-123.73,37.57 -335.5,79.13 -464.31,90.59c-6.11,0.05 -11.29,0.39 -17.26,1.74c-5.11,1.29 -8.88,2.78 -13.06,6.07c-3.91,3.39 -5.97,6.63 -7.26,11.65c-1.02,4.85 -0.72,8.6 0.36,13.39c6.51,22.39 25.96,44.92 40.76,62.53c53.6,61.8 107.67,116.02 157.44,182.01c23.25,32.05 42.22,61.44 55.96,98.82c5.35,15.86 8.42,29.06 9.05,45.85c0.15,15.62 -1.85,27.24 -8.03,41.63c-7.39,15.72 -15.88,25.81 -28.93,37.16c-17.46,14.4 -33.92,23.05 -54.68,31.8c-91.57,34.89 -132.49,24.05 -203.07,42.01c46.04,5.54 162,-18.85 206.16,-34.29c21.88,-8.77 39.13,-17.5 57.7,-32.17c14.5,-12.23 23.85,-23.08 32.27,-40.17c7.14,-15.92 9.59,-28.74 9.7,-46.15c-0.39,-18.11 -3.42,-32.29 -8.94,-49.48c-13.63,-39 -32.6,-69.38 -56.32,-102.91c-49.28,-67.02 -102.82,-121.76 -155.89,-184.58c-11.83,-14.3 -31.74,-37.91 -36.66,-55.96c-0.4,-1.83 -0.69,-3.71 -0.28,-5.56c0.29,-1.07 0.69,-1.6 1.53,-2.31c1.78,-1.36 3.98,-2.01 6.12,-2.53c1.83,-0.88 11,-1.15 13.26,-1.13c120.72,-6.6 353.57,-52.86 470.91,-87.52c15.41,-4.94 30.11,-10.04 44.81,-16.85c10.21,-4.96 20.12,-10.19 27.25,-19.27c1.67,-2.34 2.71,-4.3 3.61,-7.04c0.88,-3.04 1.1,-5.46 0.68,-8.61c-0.52,-3.16 -1.41,-5.34 -3.1,-8.05c-1.65,-2.46 -3.22,-4.12 -5.46,-6.04c-10.81,-8.4 -24.37,-12.15 -37.45,-15.43c-15.26,-3.68 -30.25,-6.3 -45.78,-8.44l0.01,-0.03z" class="fil1"/>
     <path id="svg_50" d="m1472.97,3716.98c-0.84,1.46 -1.87,2.84 -2.93,4.15c-0.05,0.06 -0.14,0.15 -0.18,0.2c-0.46,0.67 -1.96,2.08 -2.59,2.72c-7.96,8.01 -17.94,14.74 -27.32,20.89c-78.67,49.75 -174.12,90.81 -257.55,139.2c-40.6,24.52 -78.76,49.41 -110.92,84.73c-12.47,14.55 -21.24,27.38 -26.79,45.91c-4.5,17.98 -3.34,31.32 4.35,48.21c10.31,19.81 24.23,32.03 42.22,44.78c27.02,18 53.77,29.69 84.02,41.18c64.04,22.02 257.61,71.26 322.65,70.97c-91.43,-31.35 -200.14,-38.8 -317.98,-83.16c-28.89,-11.53 -54.6,-23.24 -80.19,-41.11c-15.33,-11.22 -27.91,-22.22 -36.46,-39.48c-5.72,-13.13 -6.42,-23.08 -2.72,-36.9c4.99,-15.63 13.09,-26.74 23.83,-38.93c31.21,-33.04 68.83,-56.73 107.76,-79.62c84.4,-47.58 180.06,-87.58 259.98,-136.69c10.37,-6.31 22.75,-15.11 31.4,-23.84c1.27,-1.29 2.45,-2.57 3.62,-3.96c0.07,-0.06 0.2,-0.24 0.27,-0.32c2,-2.31 3.85,-4.79 5.38,-7.43c1.49,-2.61 2.47,-4.85 3.33,-7.75c0.88,-3.3 1.15,-5.86 0.89,-9.28c-0.39,-3.52 -1.19,-6.05 -2.83,-9.19c-3.52,-6.08 -7.8,-9.52 -13.8,-13.04c-7.03,-3.86 -13.64,-6.08 -21.34,-8.24c-23.19,-6.01 -47.16,-8.28 -70.99,-10.13c-9.72,-2.41 258.47,-63.12 340.39,-80.89c144.56,-30.27 436.03,-58.8 531.31,-82.52c-41.24,-29.25 -477.63,54.91 -534.73,66.1c-1.18,0.25 -491.61,105 -338.65,119.06c22.16,1.9 45.14,4.21 66.66,10.09c5.57,1.61 11.01,3.38 16.07,6.26c1.52,0.91 4.13,2.54 5,4.2c0.1,0.1 0.1,0.3 0.13,0.42c0.06,0.2 -0.13,0.76 -0.16,0.96c-0.09,0.57 -0.81,1.93 -1.13,2.46l0,-0.01z" class="fil1"/>
    </g>
   </g>
   <path id="svg_51" d="m9034.2,3598.96c285.93,-32.36 836.76,-7.22 1163.61,-8.65c1245.17,-5.41 97.65,174.33 41.08,174.17c-194.77,-0.53 661.55,517.83 -68.68,565.98m-8672.29,-110.54c-1168.8,-193.29 377.31,-500.66 -110.68,-538.2c-128.63,-9.89 743.15,-198.61 872.54,-174.31" class="fil4"/>
   <text id="svg_52" class="fil0 fnt0" y="4715.54" x="1456.08">SURFACE MONKEY</text>
   <path id="svg_53" d="m4645.12,2021.87c-9.2,5.63 -36.85,24.57 -42.83,34.37c-8.64,14.17 5.85,45.67 41.7,21.81c10.07,-6.7 78.86,-104.32 1.13,-56.18zm7.89,19.04c12.12,-16.9 7.5,-13.37 23.87,-21.19c-6.44,7.36 -19.54,17.31 -23.87,21.19zm-25.01,20.8c10.35,-9.64 16.46,-13.14 25.01,-20.8l-25.01,20.8zm0,0c10.35,-9.64 16.46,-13.14 25.01,-20.8l-25.01,20.8zm-7.67,1.87c1.6,0.7 4.38,-0.14 7.67,-1.87l-4.69,2.79l-0.07,1.55l-2.91,-2.47z" class="fil0 str4"/>
   <path id="svg_54" d="m4517.45,2026.09c9.2,5.63 36.85,24.57 42.83,34.37c8.64,14.17 -5.85,45.67 -41.7,21.81c-10.07,-6.7 -78.86,-104.32 -1.13,-56.18zm-7.89,19.04c-12.12,-16.9 -7.5,-13.37 -23.87,-21.19c6.44,7.36 19.54,17.31 23.87,21.19zm25.01,20.8c-10.35,-9.64 -16.46,-13.14 -25.01,-20.8l25.01,20.8zm0,0c-10.35,-9.64 -16.46,-13.14 -25.01,-20.8l25.01,20.8zm7.67,1.87c-1.6,0.7 -4.38,-0.14 -7.67,-1.87l4.69,2.79l0.07,1.55l2.91,-2.47z" class="fil0 str4"/>
  </g>
 </g>
</svg>